<svg width="111" height="88" viewBox="0 0 111 88" fill="none" xmlns="http://www.w3.org/2000/svg">
<g clip-path="url(#clip0_962_79)">
<path d="M63.6157 57.2688H13.7065C11.929 57.2688 10.6793 55.5024 11.2516 53.8002L18.3945 32.5691C18.7519 31.5058 19.7399 30.7906 20.8494 30.7906H70.9525C72.7394 30.7906 73.9891 32.5738 73.4005 34.2783L66.0637 55.5095C65.6993 56.5632 64.7182 57.2665 63.6157 57.2665V57.2688Z" fill="white"/>
<path d="M26.1261 87.9452L2.73297 87.9976C0.850306 88.0024 -0.46709 86.1977 0.161242 84.4789L7.85073 63.4051C8.23614 62.3514 9.26389 61.6458 10.4178 61.6458H33.8506C35.7333 61.6458 37.046 63.4528 36.4153 65.1716L28.6861 86.1906C28.3007 87.2395 27.2777 87.9404 26.1284 87.9428L26.1261 87.9452Z" fill="white"/>
<path d="M101.068 26.4162H24.8226C23.024 26.4162 21.751 24.6378 22.3116 22.9095L29.1182 1.84277C29.4732 0.743783 30.487 0 31.6292 0H108.353C110.173 0 111.448 1.81893 110.848 3.55919L103.56 24.6235C103.189 25.6963 102.189 26.4138 101.066 26.4138L101.068 26.4162Z" fill="white"/>
</g>
<defs>
<clipPath id="clip0_962_79">
<rect width="111" height="88" fill="white"/>
</clipPath>
</defs>
</svg>
