<svg width="500" height="500" viewBox="0 0 500 500" fill="none" xmlns="http://www.w3.org/2000/svg">
<path d="M46.433 474.245C45.114 473.114 42.171 469.529 44.44 465.36C45.272 463.831 47.039 463.075 48.639 462.402C50.238 461.728 51.919 461.143 53.243 460.017C55.739 457.893 56.428 454.366 58.084 451.533C59.986 448.281 63.536 445.845 67.287 446.015C71.582 446.21 75.165 449.718 76.788 453.718C78.412 457.718 78.469 462.159 78.502 466.479C78.521 468.868 78.415 471.56 76.661 473.173C75.044 474.66 72.61 474.678 70.419 474.611C62.595 474.371 54.77 474.13 46.946 473.89" fill="#F5F5F5"/>
<path d="M91.328 409.697H29.597L40.717 476.003C41.203 478.899 43.298 481.131 45.987 481.906C46.058 481.928 46.131 481.945 46.203 481.965C46.387 482.012 46.564 482.074 46.753 482.107C47.16 482.191 47.581 482.234 48.008 482.251C48.011 482.272 48.015 482.294 48.018 482.315L48.319 482.267H48.321H75.833C76.351 482.267 76.856 482.214 77.345 482.116C80.594 481.613 83.195 479.006 83.59 475.636L88.951 429.95L89.193 428.134H89.164L91.287 410.041L91.328 409.697ZM79.683 451.992H73.348L73.987 432.749H81.327L79.683 451.992ZM81.942 432.749H88.007L85.749 451.992H80.298L81.942 432.749ZM63.843 473.324L63.458 456.606H72.581L72.026 473.324H63.843ZM53.981 456.607H62.845L63.23 473.325H55.28L53.981 456.607ZM54.666 473.324H47.234C46.528 468.81 45.609 462.944 44.614 456.606H53.367L54.666 473.324ZM53.622 451.992L52.127 432.749H62.296L62.739 451.992H53.622ZM63.352 451.992L62.909 432.749H73.374L72.735 451.992H63.352ZM62.802 428.134L62.392 410.313H74.119L73.527 428.134H62.802ZM62.189 428.134H51.768L50.383 410.313H61.779L62.189 428.134ZM51.153 428.134H40.127C39.737 425.673 39.366 423.343 39.032 421.247C37.882 414.042 37.449 411.333 37.209 410.313H49.768L51.153 428.134ZM51.512 432.749L53.007 451.992H43.888C43.581 450.039 43.271 448.064 42.96 446.088C42.245 441.545 41.529 437.004 40.857 432.749H51.512ZM43.269 451.992H37.312L34.084 432.749H40.237C41.177 438.696 42.22 445.314 43.269 451.992ZM43.993 456.607C44.901 462.392 45.795 468.096 46.613 473.325H40.89L38.086 456.607H43.993ZM72.639 473.324L73.194 456.606H79.288L77.86 473.324H72.639ZM74.14 428.134L74.732 410.313H83.244L81.722 428.134H74.14ZM36.626 410.313C36.871 411.601 37.997 418.614 39.507 428.134H33.31L30.321 410.313H36.626ZM83.246 473.324H78.475L79.903 456.606H85.207L83.246 473.324ZM88.548 428.134H82.336L83.859 410.313H90.64L88.548 428.134Z" fill="#E0E0E0"/>
<path d="M466.607 127.45H383.406V201.887H466.607V127.45Z" fill="#FAFAFA"/>
<path d="M466.608 201.887C466.608 201.887 466.594 201.41 466.587 200.505C466.582 199.592 466.575 198.256 466.565 196.517C466.554 193.022 466.537 187.914 466.516 181.407C466.493 168.401 466.459 149.817 466.419 127.45L466.608 127.638C442.647 127.648 414.051 127.659 383.414 127.672H383.407L383.629 127.45C383.619 154.531 383.61 180.014 383.602 201.887L383.406 201.691C408.227 201.732 429.001 201.766 443.583 201.79C450.879 201.812 456.623 201.83 460.556 201.842C462.515 201.852 464.021 201.86 465.049 201.865C465.552 201.87 465.937 201.874 466.208 201.876C466.469 201.879 466.608 201.887 466.608 201.887C466.608 201.887 466.485 201.894 466.231 201.898C465.965 201.901 465.588 201.904 465.094 201.909C464.074 201.914 462.581 201.922 460.639 201.932C456.716 201.944 450.987 201.962 443.71 201.984C429.097 202.008 408.279 202.042 383.407 202.083H383.211V201.887C383.203 180.015 383.194 154.531 383.184 127.45V127.228H383.406H383.413C414.05 127.24 442.645 127.252 466.607 127.262H466.796V127.451C466.756 149.867 466.722 168.493 466.699 181.527C466.678 188.015 466.661 193.11 466.65 196.594C466.64 198.318 466.633 199.641 466.628 200.546C466.622 201.437 466.608 201.887 466.608 201.887Z" fill="#455A64"/>
<path d="M415.309 140.676C415.309 140.799 410.93 140.898 405.529 140.898C400.126 140.898 395.748 140.798 395.748 140.676C395.748 140.553 400.126 140.454 405.529 140.454C410.929 140.453 415.309 140.553 415.309 140.676Z" fill="#E0E0E0"/>
<path d="M450.562 146.265C450.562 146.388 438.531 146.487 423.693 146.487C408.85 146.487 396.821 146.388 396.821 146.265C396.821 146.142 408.85 146.043 423.693 146.043C438.531 146.042 450.562 146.142 450.562 146.265Z" fill="#E0E0E0"/>
<path d="M399.395 155.732H395.89V159.237H399.395V155.732Z" fill="#E0E0E0"/>
<path d="M408.024 155.732H404.519V159.237H408.024V155.732Z" fill="#E0E0E0"/>
<path d="M416.811 155.573H413.306V159.078H416.811V155.573Z" fill="#E0E0E0"/>
<path d="M425.28 155.732H421.775V159.237H425.28V155.732Z" fill="#E0E0E0"/>
<path d="M433.909 155.732H430.404V159.237H433.909V155.732Z" fill="#E0E0E0"/>
<path d="M442.537 155.732H439.032V159.237H442.537V155.732Z" fill="#E0E0E0"/>
<path d="M451.165 155.732H447.66V159.237H451.165V155.732Z" fill="#EBEBEB"/>
<path d="M399.395 163.184H395.89V166.689H399.395V163.184Z" fill="#EBEBEB"/>
<path d="M408.024 163.184H404.519V166.689H408.024V163.184Z" fill="#E0E0E0"/>
<path d="M416.652 163.184H413.147V166.689H416.652V163.184Z" fill="#EBEBEB"/>
<path d="M425.28 163.184H421.775V166.689H425.28V163.184Z" fill="#E0E0E0"/>
<path d="M433.909 163.184H430.404V166.689H433.909V163.184Z" fill="#E0E0E0"/>
<path d="M442.696 163.025H439.191V166.53H442.696V163.025Z" fill="#E0E0E0"/>
<path d="M451.165 163.184H447.66V166.689H451.165V163.184Z" fill="#E0E0E0"/>
<path d="M399.395 170.636H395.89V174.141H399.395V170.636Z" fill="#E0E0E0"/>
<path d="M408.183 170.477H404.678V173.982H408.183V170.477Z" fill="#E0E0E0"/>
<path d="M416.652 170.636H413.147V174.141H416.652V170.636Z" fill="#E0E0E0"/>
<path d="M425.28 170.636H421.775V174.141H425.28V170.636Z" fill="#EBEBEB"/>
<path d="M433.909 170.636H430.404V174.141H433.909V170.636Z" fill="#E0E0E0"/>
<path d="M442.537 170.636H439.032V174.141H442.537V170.636Z" fill="#E0E0E0"/>
<path d="M451.165 170.636H447.66V174.141H451.165V170.636Z" fill="#E0E0E0"/>
<path d="M399.395 178.088H395.89V181.593H399.395V178.088Z" fill="#E0E0E0"/>
<path d="M408.024 178.088H404.519V181.593H408.024V178.088Z" fill="#E0E0E0"/>
<path d="M416.652 178.088H413.147V181.593H416.652V178.088Z" fill="#E0E0E0"/>
<path d="M425.439 177.929H421.934V181.434H425.439V177.929Z" fill="#E0E0E0"/>
<path d="M433.909 178.088H430.404V181.593H433.909V178.088Z" fill="#E0E0E0"/>
<path d="M442.537 178.088H439.032V181.593H442.537V178.088Z" fill="#EBEBEB"/>
<path d="M451.165 178.088H447.66V181.593H451.165V178.088Z" fill="#E0E0E0"/>
<path d="M399.395 185.54H395.89V189.045H399.395V185.54Z" fill="#E0E0E0"/>
<path d="M408.024 185.54H404.519V189.045H408.024V185.54Z" fill="#EBEBEB"/>
<path d="M416.652 185.54H413.147V189.045H416.652V185.54Z" fill="#E0E0E0"/>
<path d="M425.28 185.54H421.775V189.045H425.28V185.54Z" fill="#E0E0E0"/>
<path d="M433.909 185.54H430.404V189.045H433.909V185.54Z" fill="#E0E0E0"/>
<path d="M442.696 185.381H439.191V188.886H442.696V185.381Z" fill="#E0E0E0"/>
<path d="M451.165 185.54H447.66V189.045H451.165V185.54Z" fill="#E0E0E0"/>
<path d="M450.567 79.3126C453.225 62.78 441.976 47.2234 425.444 44.566C408.911 41.9085 393.355 53.1565 390.697 69.6891C388.04 86.2217 399.288 101.778 415.82 104.436C432.353 107.093 447.91 95.8453 450.567 79.3126Z" fill="#3E3E3E"/>
<path d="M420.944 101.621C436.098 101.621 448.383 89.3362 448.383 74.182C448.383 59.0279 436.098 46.743 420.944 46.743C405.79 46.743 393.505 59.0279 393.505 74.182C393.505 89.3362 405.79 101.621 420.944 101.621Z" fill="white"/>
<path d="M393.227 72.536C393.227 72.536 393.235 72.688 393.236 72.984C393.235 73.289 393.233 73.726 393.231 74.297C393.229 74.586 393.226 74.909 393.224 75.264C393.238 75.619 393.288 76.006 393.322 76.426C393.36 76.846 393.402 77.298 393.446 77.781C393.471 78.267 393.618 78.767 393.706 79.307C394.05 81.467 394.879 84.048 396.273 86.818C397.681 89.577 399.782 92.502 402.739 95.061C403.111 95.378 403.487 95.698 403.867 96.023C404.266 96.323 404.688 96.603 405.104 96.899C405.53 97.18 405.93 97.514 406.391 97.76C406.846 98.016 407.306 98.275 407.77 98.536C408.003 98.666 408.236 98.796 408.472 98.927C408.718 99.035 408.966 99.144 409.214 99.254C409.711 99.473 410.213 99.694 410.72 99.918C411.233 100.126 411.774 100.273 412.307 100.456C412.847 100.616 413.374 100.845 413.941 100.941C415.064 101.176 416.194 101.485 417.381 101.57C417.971 101.629 418.562 101.726 419.163 101.756C419.765 101.764 420.372 101.773 420.983 101.781C421.288 101.78 421.596 101.802 421.902 101.782C422.209 101.755 422.516 101.728 422.825 101.701C423.442 101.64 424.067 101.609 424.688 101.523C425.919 101.273 427.188 101.11 428.412 100.691L429.343 100.417C429.498 100.37 429.656 100.329 429.809 100.276L430.262 100.093C430.867 99.849 431.476 99.602 432.088 99.355C432.687 99.079 433.266 98.75 433.861 98.448C434.153 98.287 434.462 98.153 434.743 97.969L435.589 97.418C436.753 96.727 437.79 95.835 438.87 94.981C439.365 94.503 439.863 94.022 440.363 93.539L440.738 93.176L441.08 92.78L441.762 91.982L442.447 91.181L443.058 90.316L443.668 89.445L443.974 89.008C444.067 88.857 444.151 88.699 444.24 88.544C444.591 87.923 444.943 87.299 445.297 86.673C445.588 86.015 445.88 85.356 446.173 84.693C447.247 82.002 447.92 79.114 448.154 76.144C448.31 73.169 448.022 70.216 447.31 67.407C447.106 66.712 446.903 66.019 446.7 65.329C446.431 64.662 446.163 63.997 445.896 63.336L445.694 62.841L445.447 62.368L444.956 61.424L444.464 60.486L443.889 59.602L443.317 58.721L443.03 58.284L442.705 57.875C442.272 57.331 441.842 56.789 441.413 56.25C440.453 55.262 439.542 54.242 438.478 53.404L437.711 52.747C437.457 52.527 437.168 52.354 436.899 52.156C436.348 51.779 435.818 51.377 435.26 51.025C434.685 50.7 434.114 50.376 433.546 50.054L433.121 49.813C432.975 49.741 432.824 49.68 432.677 49.612L431.79 49.219C430.631 48.643 429.394 48.316 428.206 47.907C427.601 47.74 426.985 47.628 426.382 47.487C426.079 47.42 425.778 47.353 425.477 47.286C425.175 47.226 424.868 47.208 424.565 47.167C423.958 47.096 423.355 47.025 422.757 46.954C422.157 46.906 421.558 46.924 420.966 46.906C419.778 46.835 418.617 46.994 417.473 47.08C416.897 47.101 416.345 47.259 415.789 47.347C415.237 47.459 414.681 47.534 414.145 47.674C413.613 47.829 413.087 47.983 412.565 48.135C412.304 48.211 412.044 48.287 411.786 48.362C411.536 48.461 411.287 48.56 411.039 48.658C410.544 48.857 410.055 49.053 409.571 49.248C409.082 49.433 408.642 49.711 408.183 49.934C407.731 50.173 407.276 50.394 406.842 50.64C406.422 50.912 406.008 51.18 405.598 51.446C402.332 53.597 399.867 56.222 398.11 58.774C396.366 61.337 395.206 63.788 394.583 65.884C394.425 66.407 394.214 66.884 394.126 67.363C394.019 67.836 393.919 68.278 393.826 68.69C393.737 69.102 393.637 69.479 393.577 69.829C393.533 70.181 393.493 70.501 393.458 70.788C393.385 71.354 393.33 71.787 393.291 72.09C393.255 72.386 393.227 72.536 393.227 72.536C393.227 72.536 393.234 72.385 393.263 72.09C393.295 71.786 393.34 71.351 393.4 70.782C393.431 70.494 393.466 70.172 393.505 69.818C393.56 69.466 393.655 69.087 393.74 68.673C393.829 68.259 393.925 67.814 394.027 67.338C394.111 66.857 394.318 66.376 394.473 65.85C395.082 63.739 396.23 61.268 397.972 58.679C399.726 56.102 402.197 53.448 405.481 51.268C405.893 50.999 406.31 50.727 406.732 50.452C407.169 50.202 407.627 49.977 408.082 49.735C408.544 49.509 408.987 49.227 409.48 49.039C409.968 48.841 410.461 48.641 410.959 48.44C411.209 48.34 411.459 48.24 411.711 48.139C411.971 48.062 412.233 47.985 412.496 47.907C413.022 47.752 413.553 47.596 414.089 47.438C414.629 47.296 415.19 47.218 415.747 47.104C416.308 47.013 416.865 46.853 417.446 46.83C418.6 46.74 419.772 46.577 420.971 46.646C421.569 46.663 422.174 46.643 422.78 46.691C423.384 46.761 423.993 46.831 424.606 46.902C424.912 46.943 425.222 46.961 425.527 47.021C425.831 47.088 426.135 47.154 426.441 47.222C427.051 47.363 427.673 47.476 428.284 47.644C429.485 48.054 430.735 48.384 431.907 48.963L432.804 49.359C432.953 49.427 433.106 49.488 433.253 49.561L433.683 49.804C434.257 50.128 434.835 50.454 435.417 50.782C435.981 51.137 436.519 51.542 437.075 51.923C437.347 52.123 437.639 52.297 437.896 52.519L438.672 53.182C439.748 54.028 440.67 55.057 441.641 56.056C442.075 56.601 442.511 57.148 442.949 57.698L443.278 58.111L443.569 58.553L444.148 59.443L444.729 60.337L445.228 61.285L445.725 62.239L445.974 62.717L446.179 63.217C446.449 63.886 446.72 64.558 446.992 65.232C447.197 65.93 447.403 66.63 447.61 67.333C448.332 70.173 448.623 73.16 448.465 76.168C448.228 79.17 447.547 82.091 446.46 84.812C446.163 85.482 445.867 86.149 445.573 86.813C445.215 87.446 444.859 88.076 444.504 88.704C444.414 88.86 444.329 89.019 444.235 89.172L443.925 89.614L443.307 90.494L442.689 91.368L441.996 92.178L441.306 92.984L440.96 93.384L440.58 93.75C440.074 94.238 439.571 94.723 439.07 95.206C437.978 96.069 436.928 96.968 435.751 97.666L434.895 98.222C434.611 98.408 434.299 98.543 434.003 98.705C433.401 99.01 432.816 99.341 432.21 99.619C431.591 99.868 430.975 100.116 430.364 100.362L429.906 100.546C429.751 100.599 429.591 100.64 429.435 100.688L428.494 100.963C427.257 101.384 425.974 101.548 424.73 101.797C424.102 101.883 423.47 101.914 422.848 101.974C422.536 102.001 422.225 102.027 421.916 102.053C421.606 102.073 421.296 102.05 420.987 102.051C420.37 102.041 419.758 102.031 419.15 102.021C418.544 101.989 417.946 101.891 417.351 101.829C416.153 101.74 415.013 101.427 413.881 101.186C413.308 101.087 412.777 100.856 412.233 100.693C411.696 100.507 411.15 100.356 410.633 100.145C410.122 99.918 409.616 99.694 409.115 99.471C408.864 99.36 408.615 99.249 408.367 99.139C408.13 99.006 407.895 98.874 407.66 98.743C407.193 98.478 406.73 98.216 406.272 97.956C405.808 97.706 405.406 97.368 404.977 97.083C404.558 96.783 404.133 96.5 403.732 96.196C403.35 95.868 402.972 95.543 402.598 95.223C399.627 92.633 397.524 89.678 396.122 86.894C394.733 84.1 393.917 81.5 393.59 79.327C393.505 78.785 393.363 78.281 393.343 77.793C393.304 77.308 393.267 76.854 393.233 76.432C393.203 76.01 393.158 75.622 393.15 75.266C393.158 74.91 393.165 74.587 393.172 74.297C393.187 73.726 393.199 73.288 393.207 72.983C393.215 72.687 393.227 72.536 393.227 72.536Z" fill="#EBEBEB"/>
<path d="M433.442 74.934C433.442 74.957 433.097 74.979 432.467 74.998C431.777 75.012 430.876 75.03 429.784 75.052C427.508 75.083 424.336 75.105 420.756 75.111H420.579V74.934C420.579 74.361 420.578 73.757 420.578 73.144C420.578 69.145 420.598 65.526 420.63 62.906C420.653 61.643 420.672 60.598 420.687 59.804C420.708 59.071 420.732 58.666 420.756 58.666C420.781 58.666 420.804 59.071 420.826 59.804C420.84 60.598 420.86 61.643 420.883 62.906C420.915 65.526 420.936 69.145 420.936 73.144C420.935 73.757 420.935 74.361 420.935 74.934L420.758 74.757C424.338 74.763 427.51 74.784 429.786 74.816C430.878 74.838 431.778 74.856 432.469 74.87C433.096 74.89 433.442 74.911 433.442 74.934Z" fill="#3E3E3E"/>
<path d="M420.84 51.017C420.939 51.017 421.019 52.055 421.019 53.335C421.019 54.616 420.939 55.654 420.84 55.654C420.742 55.654 420.662 54.616 420.662 53.335C420.662 52.055 420.742 51.017 420.84 51.017Z" fill="#3E3E3E"/>
<path d="M433.417 54.741C433.487 54.811 432.82 55.591 431.927 56.483C431.034 57.376 430.254 58.042 430.185 57.973C430.115 57.903 430.782 57.123 431.675 56.231C432.567 55.338 433.347 54.671 433.417 54.741Z" fill="#3E3E3E"/>
<path d="M440.77 62.774C440.815 62.864 439.94 63.391 438.868 64.043C437.795 64.694 436.924 65.228 436.865 65.147C436.808 65.069 437.595 64.397 438.682 63.738C439.769 63.077 440.728 62.688 440.77 62.774Z" fill="#3E3E3E"/>
<path d="M445.08 74.6951C445.08 74.7941 443.664 74.8741 441.919 74.8741C440.173 74.8741 438.757 74.7941 438.757 74.6951C438.757 74.5961 440.172 74.5161 441.919 74.5161C443.664 74.5161 445.08 74.5961 445.08 74.6951Z" fill="#3E3E3E"/>
<path d="M401.238 74.2731C401.238 74.3711 399.901 74.4521 398.252 74.4521C396.603 74.4521 395.266 74.3721 395.266 74.2731C395.266 74.1741 396.603 74.0941 398.252 74.0941C399.901 74.0941 401.238 74.1741 401.238 74.2731Z" fill="#3E3E3E"/>
<path d="M404.339 83.148C404.404 83.222 403.394 84.139 402.083 85.195C400.772 86.251 399.661 87.043 399.603 86.964C399.544 86.885 400.554 85.969 401.859 84.917C403.164 83.865 404.274 83.074 404.339 83.148Z" fill="#3E3E3E"/>
<path d="M411.988 90.011C412.07 90.071 411.321 91.223 410.452 92.673C409.58 94.121 408.914 95.323 408.822 95.278C408.736 95.237 409.263 93.953 410.145 92.488C411.025 91.023 411.912 89.954 411.988 90.011Z" fill="#3E3E3E"/>
<path d="M420.84 98.864C420.742 98.864 420.662 97.448 420.662 95.702C420.662 93.956 420.742 92.54 420.84 92.54C420.939 92.54 421.019 93.955 421.019 95.702C421.019 97.448 420.939 98.864 420.84 98.864Z" fill="#3E3E3E"/>
<path d="M434.469 94.651C434.419 94.73 433.182 94.019 431.862 92.865C430.538 91.715 429.665 90.587 429.737 90.526C429.814 90.458 430.794 91.464 432.097 92.596C433.395 93.732 434.526 94.565 434.469 94.651Z" fill="#3E3E3E"/>
<path d="M440.865 87.763C440.795 87.833 439.858 87.008 438.771 85.922C437.684 84.835 436.86 83.898 436.93 83.828C437 83.758 437.937 84.582 439.024 85.669C440.11 86.756 440.934 87.693 440.865 87.763Z" fill="#3E3E3E"/>
<path d="M404.049 65.772C403.979 65.842 403.152 65.127 402.202 64.177C401.251 63.226 400.537 62.399 400.607 62.329C400.677 62.259 401.504 62.973 402.455 63.924C403.404 64.874 404.118 65.702 404.049 65.772Z" fill="#3E3E3E"/>
<path d="M411.942 57.457C411.872 57.527 411.059 56.83 410.126 55.901C409.192 54.972 408.492 54.162 408.562 54.092C408.631 54.022 409.444 54.719 410.378 55.648C411.311 56.577 412.011 57.387 411.942 57.457Z" fill="#3E3E3E"/>
<path d="M396.375 74.452C396.375 59.846 407.789 47.91 422.183 47.066C421.643 47.034 421.1 47.014 420.552 47.014C405.398 47.014 393.113 59.299 393.113 74.453C393.113 89.607 405.398 101.891 420.552 101.891C421.1 101.891 421.643 101.87 422.183 101.839C407.788 100.993 396.375 89.058 396.375 74.452Z" fill="#F5F5F5"/>
<path d="M115.248 50.014H38.0011V172.09H115.248V50.014Z" fill="#3E3E3E"/>
<path d="M112.903 52.307H40.0822V170.083H112.903V52.307Z" fill="#F5F5F5"/>
<path d="M105.53 59.168H76.493V104.226H105.53V59.168Z" fill="white"/>
<path d="M92.5561 63.1521C92.5561 63.7511 92.0711 64.2361 91.4721 64.2361C90.8731 64.2361 90.3881 63.7511 90.3881 63.1521C90.3881 62.5531 90.8731 62.0681 91.4721 62.0681C92.0711 62.0681 92.5561 62.5531 92.5561 63.1521Z" fill="#3E3E3E"/>
<path d="M76.2661 116.766H47.2291V161.824H76.2661V116.766Z" fill="white"/>
<path d="M63.2921 120.749C63.2921 121.348 62.8071 121.833 62.2081 121.833C61.6091 121.833 61.1241 121.348 61.1241 120.749C61.1241 120.151 61.6091 119.665 62.2081 119.665C62.8071 119.666 63.2921 120.151 63.2921 120.749Z" fill="#3E3E3E"/>
<path d="M71.6351 59.168H46.8361V94.353H71.6351V59.168Z" fill="white"/>
<path d="M60.1361 62.364C60.1361 62.861 59.7331 63.264 59.2361 63.264C58.7391 63.264 58.3361 62.861 58.3361 62.364C58.3361 61.867 58.7391 61.4641 59.2361 61.4641C59.7331 61.4641 60.1361 61.867 60.1361 62.364Z" fill="#3E3E3E"/>
<path d="M106.484 117.386L79.9635 120.378L81.6211 135.072L108.142 132.08L106.484 117.386Z" fill="white"/>
<path d="M94.4561 121.668C94.4561 122.175 94.0451 122.586 93.5381 122.586C93.0311 122.586 92.6201 122.175 92.6201 121.668C92.6201 121.161 93.0311 120.75 93.5381 120.75C94.0451 120.749 94.4561 121.161 94.4561 121.668Z" fill="#3E3E3E"/>
<path d="M72.3921 127.043C72.3921 127.162 67.8321 127.259 62.2091 127.259C56.5841 127.259 52.0251 127.162 52.0251 127.043C52.0251 126.924 56.5841 126.827 62.2091 126.827C67.8321 126.827 72.3921 126.924 72.3921 127.043Z" fill="#3E3E3E"/>
<path d="M72.3921 130.267C72.3921 130.387 67.8321 130.484 62.2091 130.484C56.5841 130.484 52.0251 130.387 52.0251 130.267C52.0251 130.148 56.5841 130.051 62.2091 130.051C67.8321 130.051 72.3921 130.147 72.3921 130.267Z" fill="#3E3E3E"/>
<path d="M72.3921 133.491C72.3921 133.61 67.8321 133.707 62.2091 133.707C56.5841 133.707 52.0251 133.61 52.0251 133.491C52.0251 133.371 56.5841 133.275 62.2091 133.275C67.8321 133.274 72.3921 133.371 72.3921 133.491Z" fill="#3E3E3E"/>
<path d="M72.3921 136.714C72.3921 136.834 67.8321 136.93 62.2091 136.93C56.5841 136.93 52.0251 136.833 52.0251 136.714C52.0251 136.595 56.5841 136.498 62.2091 136.498C67.8321 136.498 72.3921 136.595 72.3921 136.714Z" fill="#3E3E3E"/>
<path d="M72.3921 139.938C72.3921 140.058 67.8321 140.155 62.2091 140.155C56.5841 140.155 52.0251 140.058 52.0251 139.938C52.0251 139.819 56.5841 139.722 62.2091 139.722C67.8321 139.722 72.3921 139.819 72.3921 139.938Z" fill="#3E3E3E"/>
<path d="M72.3921 143.162C72.3921 143.282 67.8321 143.378 62.2091 143.378C56.5841 143.378 52.0251 143.281 52.0251 143.162C52.0251 143.043 56.5841 142.946 62.2091 142.946C67.8321 142.945 72.3921 143.042 72.3921 143.162Z" fill="#3E3E3E"/>
<path d="M72.3921 146.386C72.3921 146.506 67.8321 146.602 62.2091 146.602C56.5841 146.602 52.0251 146.505 52.0251 146.386C52.0251 146.267 56.5841 146.17 62.2091 146.17C67.8321 146.169 72.3921 146.266 72.3921 146.386Z" fill="#3E3E3E"/>
<path d="M103.999 123.59C104.016 123.708 99.5141 124.441 93.9461 125.227C88.3761 126.013 83.8481 126.554 83.8321 126.436C83.8151 126.318 88.3161 125.585 93.8861 124.799C99.4541 124.013 103.982 123.472 103.999 123.59Z" fill="#3E3E3E"/>
<path d="M104.404 125.606C104.421 125.724 99.9191 126.457 94.3511 127.243C88.7811 128.029 84.2531 128.57 84.2371 128.452C84.2211 128.334 88.7211 127.601 94.2911 126.815C99.8581 126.029 104.387 125.488 104.404 125.606Z" fill="#3E3E3E"/>
<path d="M104.774 127.468C104.791 127.586 100.289 128.32 94.7211 129.105C89.1511 129.891 84.6241 130.432 84.6071 130.314C84.5901 130.196 89.0911 129.463 94.6611 128.677C100.228 127.891 104.757 127.35 104.774 127.468Z" fill="#3E3E3E"/>
<path d="M102.977 68.5941C102.977 68.7141 97.8261 68.8101 91.4731 68.8101C85.1181 68.8101 79.9681 68.7131 79.9681 68.5941C79.9681 68.4751 85.1181 68.3781 91.4731 68.3781C97.8251 68.3781 102.977 68.4751 102.977 68.5941Z" fill="#3E3E3E"/>
<path d="M102.977 70.511C102.977 70.63 97.8261 70.727 91.4731 70.727C85.1181 70.727 79.9681 70.63 79.9681 70.511C79.9681 70.392 85.1181 70.295 91.4731 70.295C97.8251 70.295 102.977 70.391 102.977 70.511Z" fill="#3E3E3E"/>
<path d="M102.977 72.428C102.977 72.548 97.8261 72.644 91.4731 72.644C85.1181 72.644 79.9681 72.547 79.9681 72.428C79.9681 72.309 85.1181 72.212 91.4731 72.212C97.8251 72.211 102.977 72.308 102.977 72.428Z" fill="#3E3E3E"/>
<path d="M102.977 74.3441C102.977 74.4631 97.8261 74.5601 91.4731 74.5601C85.1181 74.5601 79.9681 74.4631 79.9681 74.3441C79.9681 74.2251 85.1181 74.1281 91.4731 74.1281C97.8251 74.1281 102.977 74.2251 102.977 74.3441Z" fill="#3E3E3E"/>
<path d="M102.977 76.261C102.977 76.38 97.8261 76.477 91.4731 76.477C85.1181 76.477 79.9681 76.38 79.9681 76.261C79.9681 76.142 85.1181 76.045 91.4731 76.045C97.8251 76.045 102.977 76.142 102.977 76.261Z" fill="#3E3E3E"/>
<path d="M102.977 78.178C102.977 78.297 97.8261 78.394 91.4731 78.394C85.1181 78.394 79.9681 78.297 79.9681 78.178C79.9681 78.059 85.1181 77.962 91.4731 77.962C97.8251 77.962 102.977 78.059 102.977 78.178Z" fill="#3E3E3E"/>
<path d="M102.977 80.095C102.977 80.214 97.8261 80.311 91.4731 80.311C85.1181 80.311 79.9681 80.214 79.9681 80.095C79.9681 79.976 85.1181 79.879 91.4731 79.879C97.8251 79.879 102.977 79.976 102.977 80.095Z" fill="#3E3E3E"/>
<path d="M102.977 85.783C102.977 85.903 97.8261 85.999 91.4731 85.999C85.1181 85.999 79.9681 85.902 79.9681 85.783C79.9681 85.664 85.1181 85.567 91.4731 85.567C97.8251 85.567 102.977 85.664 102.977 85.783Z" fill="#3E3E3E"/>
<path d="M103.138 87.808C103.138 87.927 97.9872 88.024 91.6342 88.024C85.2792 88.024 80.1292 87.927 80.1292 87.808C80.1292 87.689 85.2792 87.592 91.6342 87.592C97.9872 87.591 103.138 87.688 103.138 87.808Z" fill="#3E3E3E"/>
<path d="M103.3 89.832C103.3 89.952 98.1491 90.048 91.7961 90.048C85.4411 90.048 80.2911 89.951 80.2911 89.832C80.2911 89.713 85.4411 89.616 91.7961 89.616C98.1491 89.616 103.3 89.713 103.3 89.832Z" fill="#3E3E3E"/>
<path d="M103.462 91.8571C103.462 91.9761 98.3111 92.0731 91.9581 92.0731C85.6031 92.0731 80.4531 91.9761 80.4531 91.8571C80.4531 91.7381 85.6031 91.6411 91.9581 91.6411C98.3111 91.6411 103.462 91.7381 103.462 91.8571Z" fill="#3E3E3E"/>
<path d="M103.624 93.881C103.624 94 98.4731 94.097 92.1201 94.097C85.7651 94.097 80.6151 94 80.6151 93.881C80.6151 93.762 85.7651 93.665 92.1201 93.665C98.4731 93.665 103.624 93.762 103.624 93.881Z" fill="#3E3E3E"/>
<path d="M103.786 95.9061C103.786 96.0261 98.6351 96.1221 92.2821 96.1221C85.9271 96.1221 80.7771 96.0251 80.7771 95.9061C80.7771 95.7871 85.9271 95.6901 92.2821 95.6901C98.6351 95.6901 103.786 95.7871 103.786 95.9061Z" fill="#3E3E3E"/>
<path d="M480.143 482.342C480.143 482.486 377.096 482.602 250.011 482.602C122.882 482.602 19.8571 482.485 19.8571 482.342C19.8571 482.198 122.881 482.082 250.011 482.082C377.096 482.082 480.143 482.199 480.143 482.342Z" fill="#263238"/>
<path d="M356.259 376.48H146.128C141.028 376.48 136.893 372.345 136.893 367.245V61.248C136.893 56.147 141.028 52.013 146.128 52.013H356.259C361.36 52.013 365.494 56.148 365.494 61.248V367.245C365.494 372.345 361.359 376.48 356.259 376.48Z" fill="#E0E0E0"/>
<path d="M356.259 376.48C356.259 376.48 356.497 376.46 356.967 376.433C357.436 376.401 358.134 376.294 359.025 376.034C359.905 375.745 360.973 375.259 362.046 374.395C363.103 373.53 364.165 372.265 364.818 370.576C365.162 369.74 365.356 368.789 365.418 367.784C365.471 366.776 365.43 365.703 365.44 364.584C365.437 362.343 365.433 359.892 365.43 357.238C365.424 351.928 365.417 345.802 365.41 338.906C365.393 311.317 365.369 271.4 365.34 222.078C365.332 197.416 365.323 170.402 365.313 141.402C365.31 126.902 365.306 111.905 365.302 96.458C365.3 88.734 365.299 80.898 365.297 72.954C365.292 68.984 365.286 64.988 365.28 60.966C365.241 58.993 364.485 57.058 363.242 55.519C361.972 54.002 360.212 52.874 358.26 52.448C357.284 52.226 356.292 52.206 355.261 52.219C354.239 52.219 353.215 52.219 352.19 52.219C350.139 52.219 348.083 52.22 346.02 52.22C341.894 52.221 337.744 52.221 333.569 52.222C325.22 52.223 316.776 52.224 308.242 52.225C291.174 52.227 273.746 52.229 256.005 52.231C220.522 52.232 183.784 52.234 146.156 52.235C143.854 52.227 141.576 53.135 139.923 54.724C138.256 56.297 137.236 58.523 137.139 60.804C137.093 65.458 137.126 70.136 137.116 74.778C137.116 84.071 137.115 93.303 137.115 102.467C137.114 120.796 137.113 138.856 137.112 156.602C137.108 192.094 137.103 226.328 137.099 258.94C137.092 291.552 137.085 322.542 137.078 351.544C137.077 355.169 137.076 358.764 137.075 362.326C137.083 364.104 137.054 365.889 137.093 367.638C137.151 369.37 137.746 371.062 138.732 372.463C139.72 373.869 141.11 374.966 142.678 375.622C143.467 375.941 144.295 376.147 145.134 376.25C145.971 376.324 146.835 376.307 147.694 376.308C151.126 376.309 154.526 376.31 157.891 376.311C171.353 376.316 184.272 376.321 196.603 376.325C245.926 376.355 285.839 376.379 313.425 376.395C327.214 376.413 337.922 376.427 345.186 376.437C348.814 376.447 351.582 376.454 353.446 376.459C355.305 376.465 356.259 376.48 356.259 376.48C356.259 376.48 355.306 376.495 353.445 376.503C351.581 376.508 348.813 376.515 345.185 376.525C337.921 376.534 327.213 376.548 313.424 376.567C285.838 376.584 245.925 376.607 196.602 376.637C184.271 376.642 171.352 376.646 157.89 376.651C154.525 376.652 151.125 376.653 147.693 376.654C146.836 376.653 145.977 376.672 145.095 376.595C144.223 376.488 143.362 376.275 142.543 375.944C140.913 375.264 139.469 374.125 138.442 372.665C137.416 371.21 136.797 369.45 136.735 367.651C136.694 365.871 136.723 364.109 136.713 362.324C136.712 358.762 136.711 355.167 136.71 351.542C136.704 322.54 136.697 291.55 136.69 258.938C136.686 226.326 136.682 192.091 136.677 156.6C136.676 138.854 136.675 120.794 136.674 102.465C136.674 93.301 136.673 84.069 136.673 74.776C136.683 70.125 136.65 65.478 136.696 60.781C136.798 58.388 137.869 56.051 139.617 54.402C141.35 52.736 143.744 51.782 146.155 51.791C183.783 51.792 220.521 51.794 256.004 51.796C273.746 51.798 291.173 51.8 308.241 51.801C316.775 51.802 325.219 51.803 333.568 51.805C337.742 51.806 341.893 51.806 346.019 51.807C348.082 51.807 350.139 51.808 352.189 51.808C353.214 51.808 354.238 51.808 355.26 51.808C356.271 51.796 357.334 51.815 358.349 52.048C360.389 52.496 362.229 53.674 363.554 55.26C364.852 56.867 365.641 58.892 365.682 60.952C365.686 64.978 365.69 68.979 365.694 72.953C365.692 80.896 365.691 88.733 365.689 96.457C365.685 111.905 365.681 126.901 365.678 141.401C365.668 170.401 365.659 197.415 365.651 222.077C365.621 271.4 365.597 311.316 365.581 338.905C365.573 345.801 365.567 351.927 365.561 357.237C365.557 359.892 365.554 362.342 365.551 364.583C365.537 365.704 365.575 366.769 365.518 367.788C365.452 368.804 365.252 369.763 364.902 370.607C364.235 372.31 363.158 373.58 362.089 374.446C361.004 375.31 359.926 375.793 359.039 376.075C358.141 376.33 357.439 376.429 356.969 376.454C356.497 376.476 356.259 376.48 356.259 376.48Z" fill="#455A64"/>
<g opacity="0.3">
<path d="M156.837 369.148H348.697L346.593 329.242V308.001L156.837 337.651V369.148Z" fill="black"/>
</g>
<g opacity="0.3">
<path d="M308.877 52.675L313.237 65.6061V71.9411H308.321L308.877 52.675Z" fill="black"/>
</g>
<path d="M147.088 65.013V363.068H302.576H355.298V65.013H147.088Z" fill="white"/>
<path d="M355.298 309.772C355.298 309.772 355.287 309.386 355.282 308.626C355.278 307.862 355.273 306.73 355.266 305.239C355.259 302.247 355.249 297.817 355.236 292.046C355.223 280.494 355.205 263.579 355.181 242.106C355.162 199.15 355.134 137.962 355.101 65.013L355.297 65.209C293.78 65.216 222.591 65.225 147.086 65.234L147.307 65.013C147.307 65.097 147.307 65.187 147.307 65.278C147.286 179.856 147.267 284.491 147.252 363.068L147.086 362.902C194.984 362.933 233.855 362.958 260.755 362.975C274.201 362.994 284.655 363.009 291.751 363.02C295.295 363.03 297.999 363.038 299.822 363.044C301.641 363.052 302.574 363.069 302.574 363.069C302.574 363.069 301.641 363.085 299.822 363.094C297.999 363.099 295.294 363.107 291.751 363.118C284.655 363.128 274.201 363.143 260.755 363.163C233.854 363.18 194.984 363.206 147.086 363.236H146.92V363.07C146.905 284.493 146.886 179.858 146.865 65.28C146.865 65.189 146.865 65.098 146.865 65.015V64.794H147.086C222.591 64.803 293.78 64.812 355.297 64.819H355.493V65.015C355.46 137.964 355.433 199.152 355.413 242.108C355.39 263.582 355.371 280.497 355.358 292.048C355.345 297.819 355.335 302.249 355.328 305.241C355.321 306.732 355.316 307.864 355.312 308.628C355.309 309.386 355.298 309.772 355.298 309.772Z" fill="#455A64"/>
<path d="M308.877 74.487H203.528V50.257C203.528 46.764 206.36 43.931 209.854 43.931H302.551C306.044 43.931 308.877 46.763 308.877 50.257V74.487Z" fill="#455A64"/>
<path d="M269.609 32.44H242.796L245.93 55.423H266.127L269.609 32.44Z" fill="#455A64"/>
<path d="M302.109 43.931C302.109 44.053 281.554 44.152 256.204 44.152C230.845 44.152 210.295 44.053 210.295 43.931C210.295 43.809 230.845 43.71 256.204 43.71C281.554 43.71 302.109 43.809 302.109 43.931Z" fill="#455A64"/>
<path d="M205.886 69.557C205.764 69.557 205.665 65.235 205.665 59.904C205.665 54.571 205.764 50.25 205.886 50.25C206.008 50.25 206.107 54.571 206.107 59.904C206.107 65.235 206.008 69.557 205.886 69.557Z" fill="#455A64"/>
<path d="M305.466 67.271C305.344 67.271 305.245 63.347 305.245 58.507C305.245 53.666 305.344 49.743 305.466 49.743C305.588 49.743 305.687 53.666 305.687 58.507C305.687 63.347 305.588 67.271 305.466 67.271Z" fill="#455A64"/>
<path d="M300.386 71.336C300.386 71.458 279.287 71.557 253.265 71.557C227.234 71.557 206.14 71.458 206.14 71.336C206.14 71.214 227.235 71.115 253.265 71.115C279.286 71.115 300.386 71.214 300.386 71.336Z" fill="#455A64"/>
<path d="M328.937 122.215H213.951V129.283H328.937V122.215Z" fill="#E0E0E0"/>
<path d="M266.117 136.653H213.951V143.672H266.117V136.653Z" fill="#E0E0E0"/>
<path d="M198.387 145.781H179.527C177.394 145.781 175.664 144.052 175.664 141.918V123.058C175.664 120.925 177.393 119.195 179.527 119.195H198.387C200.52 119.195 202.25 120.924 202.25 123.058V141.918C202.25 144.052 200.521 145.781 198.387 145.781Z" fill="#FF6E14"/>
<path d="M188.576 138.822L181.129 133.067L183.137 130.468L188.131 134.327L195.233 126.155L197.712 128.31L188.576 138.822Z" fill="white"/>
<path d="M328.937 165.977H213.951V173.045H328.937V165.977Z" fill="#E0E0E0"/>
<path d="M266.117 180.415H213.951V187.434H266.117V180.415Z" fill="#E0E0E0"/>
<path d="M198.387 189.543H179.527C177.394 189.543 175.664 187.814 175.664 185.68V166.82C175.664 164.687 177.393 162.957 179.527 162.957H198.387C200.52 162.957 202.25 164.686 202.25 166.82V185.68C202.25 187.814 200.521 189.543 198.387 189.543Z" fill="#FF6E14"/>
<path d="M188.576 182.584L181.129 176.829L183.137 174.23L188.131 178.089L195.233 169.917L197.712 172.072L188.576 182.584Z" fill="white"/>
<path d="M328.937 212.865H213.951V219.933H328.937V212.865Z" fill="#E0E0E0"/>
<path d="M266.117 227.303H213.951V234.322H266.117V227.303Z" fill="#E0E0E0"/>
<path d="M328.937 256.213H213.951V263.281H328.937V256.213Z" fill="#E0E0E0"/>
<path d="M266.117 270.651H213.951V277.67H266.117V270.651Z" fill="#E0E0E0"/>
<path d="M198.387 236.432H179.527C177.394 236.432 175.664 234.703 175.664 232.569V213.709C175.664 211.576 177.393 209.846 179.527 209.846H198.387C200.52 209.846 202.25 211.575 202.25 213.709V232.569C202.25 234.702 200.521 236.432 198.387 236.432Z" fill="#FF6E14"/>
<path d="M188.576 229.473L181.129 223.718L183.137 221.119L188.131 224.978L195.233 216.806L197.712 218.96L188.576 229.473Z" fill="white"/>
<path d="M198.767 281.464H179.147C176.978 281.464 175.214 279.7 175.214 277.53V257.911C175.214 255.742 176.979 253.978 179.147 253.978H198.767C200.936 253.978 202.701 255.742 202.701 257.911V277.53C202.701 279.7 200.937 281.464 198.767 281.464ZM179.148 254.879C177.476 254.879 176.116 256.239 176.116 257.911V277.53C176.116 279.202 177.476 280.563 179.148 280.563H198.768C200.44 280.563 201.8 279.203 201.8 277.53V257.911C201.8 256.24 200.44 254.879 198.768 254.879H179.148Z" fill="#FF6E14"/>
<path d="M328.937 305.798H213.951V312.866H328.937V305.798Z" fill="#E0E0E0"/>
<path d="M266.117 320.236H213.951V327.255H266.117V320.236Z" fill="#E0E0E0"/>
<path d="M198.767 331.049H179.147C176.978 331.049 175.214 329.285 175.214 327.115V307.496C175.214 305.327 176.979 303.563 179.147 303.563H198.767C200.936 303.563 202.701 305.327 202.701 307.496V327.115C202.701 329.285 200.937 331.049 198.767 331.049ZM179.148 304.464C177.476 304.464 176.116 305.824 176.116 307.496V327.115C176.116 328.787 177.476 330.148 179.148 330.148H198.768C200.44 330.148 201.8 328.788 201.8 327.115V307.496C201.8 305.825 200.44 304.464 198.768 304.464H179.148Z" fill="#FF6E14"/>
<path d="M314.754 94.846H200.111V104.661H314.754V94.846Z" fill="#FF6E14"/>
<path d="M219.894 458.756C219.894 458.756 216.443 435.03 216.731 421.225C217.019 407.421 216.714 391.891 216.714 391.891H218.304C218.304 391.891 217.227 419.291 218.399 435.817C219.57 452.33 222.656 458.756 222.656 458.756H219.894Z" fill="#263238"/>
<path d="M230.174 365.195C229.854 364.384 229.461 363.54 228.725 363.074C227.716 362.435 226.394 362.701 225.267 363.099C220.462 364.798 216.203 373.757 214.26 378.469L220.639 399.963C232.154 389.281 234.148 375.268 230.174 365.195Z" fill="#455A64"/>
<path d="M228.352 363.944C228.36 363.948 228.328 364.044 228.259 364.224C228.177 364.43 228.073 364.689 227.947 365.007C227.667 365.683 227.275 366.667 226.806 367.888C225.866 370.329 224.67 373.741 223.6 377.585C222.535 381.432 221.801 384.973 221.348 387.549C221.121 388.837 220.95 389.882 220.841 390.606C220.786 390.944 220.741 391.219 220.705 391.438C220.671 391.628 220.649 391.727 220.64 391.726C220.631 391.725 220.635 391.623 220.653 391.431C220.676 391.211 220.705 390.933 220.74 390.592C220.818 389.864 220.961 388.813 221.165 387.518C221.571 384.929 222.279 381.372 223.347 377.514C224.42 373.659 225.647 370.246 226.633 367.819C227.125 366.605 227.544 365.63 227.853 364.966C227.998 364.655 228.117 364.403 228.211 364.202C228.296 364.029 228.344 363.94 228.352 363.944Z" fill="#263238"/>
<path d="M217.805 405.116C211.826 401.812 208.302 395.596 207.973 388.773C207.743 384.003 209.209 379.323 210.869 374.845C211.013 374.457 211.184 374.038 211.544 373.834C212.046 373.55 212.673 373.803 213.174 374.088C217.519 376.562 220.151 381.279 221.552 386.079C222.484 389.273 222.967 392.64 222.536 395.939C222.105 399.239 220.219 402.828 217.805 405.116Z" fill="#455A64"/>
<path d="M217.805 405.116C217.796 405.116 217.788 405.017 217.782 404.828C217.778 404.61 217.773 404.337 217.766 404.003C217.764 403.287 217.735 402.251 217.676 400.973C217.561 398.417 217.226 394.893 216.566 391.043C215.903 387.193 215.098 383.746 214.505 381.254C214.213 380.035 213.973 379.036 213.797 378.303C213.722 377.977 213.661 377.711 213.613 377.498C213.574 377.313 213.557 377.215 213.566 377.213C213.575 377.211 213.608 377.304 213.664 377.485C213.725 377.694 213.802 377.956 213.896 378.277C214.093 378.966 214.364 379.967 214.685 381.209C215.325 383.691 216.16 387.138 216.825 390.999C217.487 394.859 217.794 398.4 217.861 400.965C217.896 402.248 217.897 403.286 217.867 404.003C217.853 404.338 217.842 404.611 217.833 404.828C217.824 405.018 217.814 405.117 217.805 405.116Z" fill="#263238"/>
<g opacity="0.3">
<path d="M217.805 405.116C211.826 401.812 208.302 395.596 207.973 388.773C207.743 384.003 209.209 379.323 210.869 374.845C211.013 374.457 211.184 374.038 211.544 373.834C212.046 373.55 212.673 373.803 213.174 374.088C217.519 376.562 220.151 381.279 221.552 386.079C222.484 389.273 222.967 392.64 222.536 395.939C222.105 399.239 220.219 402.828 217.805 405.116Z" fill="black"/>
</g>
<path d="M224.551 441.419C230.436 442.712 235.281 446.863 240.959 448.881C244.715 450.216 248.963 450.689 251.962 453.315C251.242 451.498 249.536 450.288 247.879 449.253C243.21 446.337 238.211 443.95 233.008 442.154C230.337 441.232 227.439 440.461 224.717 441.221" fill="#455A64"/>
<path d="M216.042 446.662C208.672 446.543 200.912 440.269 193.577 439.894C201.254 437.415 212.245 439.44 216.042 446.662Z" fill="#455A64"/>
<path d="M218.922 428.983C222.664 427.634 226.773 427.57 230.704 428.181C234.635 428.792 238.431 430.052 242.206 431.307C241.828 428.75 239.757 426.827 237.812 425.125C236.348 423.844 234.873 422.556 233.193 421.575C231.513 420.594 229.597 419.93 227.654 420.012C225.31 420.111 223.078 421.321 221.54 423.093C220.003 424.866 219.176 426.65 218.922 428.983Z" fill="#455A64"/>
<path d="M203.796 420.845C199.157 416.884 192.13 417.271 186.031 417.409C195.406 421.891 205.508 428.036 213.582 434.578C213.83 430.267 209.657 425.849 203.796 420.845Z" fill="#455A64"/>
<g opacity="0.3">
<path d="M203.796 420.845C199.157 416.884 192.13 417.271 186.031 417.409C195.406 421.891 205.508 428.036 213.582 434.578C213.83 430.267 209.657 425.849 203.796 420.845Z" fill="black"/>
</g>
<path d="M221.008 415.378C223.341 413.823 225.701 412.34 228.143 411.231C230.585 410.122 232.863 408.354 235.221 407.077C238.279 405.421 240.928 403.119 243.735 401.067C246.542 399.014 249.625 397.161 253.06 396.617C250.259 396.039 247.333 396.354 244.574 397.108C241.815 397.861 239.194 399.041 236.587 400.216C232.968 401.846 229.286 403.517 226.328 406.163C223.37 408.809 220.696 411.421 221.008 415.378Z" fill="#455A64"/>
<path d="M240.823 446.662C240.819 446.67 240.738 446.635 240.59 446.561C240.416 446.471 240.204 446.361 239.947 446.228C239.392 445.933 238.595 445.495 237.592 444.991C237.095 444.729 236.545 444.455 235.948 444.175C235.357 443.881 234.715 443.592 234.034 443.297C232.673 442.716 231.154 442.109 229.496 441.715C227.844 441.31 226.197 441.22 224.769 441.596C224.048 441.77 223.37 441.942 222.766 442.194C222.16 442.44 221.62 442.727 221.149 443.024C220.205 443.618 219.545 444.249 219.117 444.703C218.69 445.16 218.482 445.44 218.463 445.426C218.456 445.421 218.501 445.346 218.595 445.209C218.687 445.071 218.836 444.876 219.04 444.634C219.449 444.154 220.098 443.493 221.047 442.868C221.52 442.555 222.066 442.252 222.682 441.992C223.297 441.725 223.991 441.541 224.712 441.36C226.172 440.961 227.883 441.046 229.556 441.459C231.239 441.859 232.767 442.478 234.13 443.075C234.812 443.377 235.453 443.675 236.042 443.978C236.638 444.268 237.185 444.552 237.677 444.825C238.672 445.352 239.456 445.815 239.996 446.138C240.243 446.288 240.448 446.413 240.615 446.514C240.757 446.604 240.828 446.654 240.823 446.662Z" fill="#263238"/>
<path d="M210.545 443.01C210.552 442.993 210.715 443.042 211.007 443.145C211.3 443.244 211.712 443.421 212.208 443.667C213.2 444.157 214.504 444.991 215.729 446.164C216.951 447.341 217.836 448.612 218.365 449.583C218.631 450.068 218.824 450.473 218.935 450.762C219.05 451.049 219.105 451.211 219.088 451.218C219.046 451.237 218.77 450.613 218.204 449.677C217.64 448.741 216.747 447.512 215.546 446.354C214.342 445.201 213.078 444.358 212.12 443.832C211.163 443.303 210.528 443.053 210.545 443.01Z" fill="#263238"/>
<path d="M194.239 420.475C194.242 420.466 194.35 420.499 194.553 420.568C194.781 420.649 195.074 420.754 195.438 420.883C195.831 421.028 196.297 421.2 196.833 421.397C197.377 421.599 197.967 421.897 198.635 422.191C201.288 423.396 204.819 425.423 208.23 428.304C209.912 429.768 211.432 431.256 212.704 432.71C213.971 434.167 215.044 435.538 215.88 436.733C216.721 437.925 217.36 438.918 217.797 439.605C218.004 439.929 218.171 440.191 218.301 440.395C218.415 440.576 218.472 440.674 218.464 440.68C218.457 440.685 218.386 440.598 218.257 440.426C218.128 440.254 217.941 439.998 217.711 439.662C217.247 438.992 216.586 438.016 215.729 436.842C214.876 435.664 213.793 434.311 212.523 432.871C211.248 431.433 209.731 429.96 208.059 428.505C204.67 425.642 201.178 423.603 198.556 422.36C197.896 422.056 197.313 421.747 196.777 421.533C196.249 421.32 195.79 421.135 195.402 420.979C195.047 420.831 194.759 420.711 194.536 420.618C194.338 420.533 194.236 420.484 194.239 420.475Z" fill="#263238"/>
<path d="M229.98 424.84C229.975 424.858 229.766 424.83 229.392 424.764C229.189 424.727 228.965 424.685 228.715 424.639C228.452 424.588 228.144 424.587 227.81 424.552C226.485 424.456 224.554 424.565 222.745 425.551C221.832 426.013 221.067 426.636 220.44 427.261C219.804 427.881 219.322 428.528 218.958 429.093C218.219 430.225 217.99 431.042 217.945 431.027C217.931 431.023 217.972 430.815 218.095 430.452C218.23 430.095 218.439 429.578 218.8 428.995C219.15 428.407 219.626 427.736 220.267 427.091C220.898 426.442 221.681 425.795 222.621 425.319C224.487 424.302 226.484 424.22 227.825 424.367C228.164 424.414 228.475 424.429 228.739 424.494C228.988 424.557 229.212 424.613 229.414 424.664C229.784 424.761 229.985 424.823 229.98 424.84Z" fill="#263238"/>
<path d="M237.387 401.862C237.391 401.87 237.295 401.929 237.108 402.034C236.896 402.149 236.623 402.297 236.286 402.481C235.571 402.866 234.542 403.434 233.292 404.171C232.048 404.917 230.582 405.834 229.023 406.949C227.468 408.066 225.798 409.365 224.256 410.943C223.496 411.737 222.795 412.566 222.306 413.467C221.823 414.394 221.362 415.29 220.938 416.15C220.086 417.869 219.392 419.452 218.89 420.811C218.39 422.171 218.079 423.304 217.894 424.093C217.705 424.882 217.637 425.327 217.611 425.322C217.602 425.321 217.612 425.209 217.64 424.996C217.667 424.783 217.712 424.47 217.793 424.071C217.948 423.272 218.234 422.124 218.714 420.748C219.196 419.372 219.876 417.773 220.719 416.043C221.139 415.177 221.596 414.277 222.076 413.348C222.583 412.405 223.295 411.565 224.065 410.76C225.626 409.163 227.31 407.864 228.881 406.751C230.456 405.642 231.937 404.738 233.197 404.01C234.463 403.292 235.507 402.747 236.238 402.389C236.585 402.224 236.865 402.09 237.084 401.986C237.279 401.897 237.383 401.853 237.387 401.862Z" fill="#263238"/>
<path d="M216.722 424.176C216.704 424.179 216.653 423.957 216.576 423.555C216.49 423.1 216.382 422.53 216.254 421.852C215.973 420.417 215.544 418.442 214.86 416.322C214.182 414.199 213.358 412.352 212.755 411.02C212.469 410.392 212.228 409.864 212.036 409.442C211.868 409.068 211.784 408.857 211.8 408.849C211.816 408.841 211.932 409.036 212.128 409.396C212.324 409.756 212.599 410.282 212.923 410.94C213.57 412.254 214.427 414.101 215.11 416.241C215.799 418.377 216.202 420.372 216.436 421.819C216.551 422.544 216.634 423.131 216.677 423.539C216.723 423.947 216.74 424.173 216.722 424.176Z" fill="#263238"/>
<path d="M216.188 407.409C216.003 404.625 215.096 401.919 213.791 399.453C210.214 392.69 203.491 387.676 195.988 386.177C201.482 394.365 206.976 402.554 212.47 410.742L214.598 415.126C216.051 412.743 216.373 410.193 216.188 407.409Z" fill="#455A64"/>
<path d="M239.83 455.821H201.506V462.614H239.83V455.821Z" fill="#FEAD51"/>
<path d="M204.368 461.266L207.631 482.342H233.074L236.968 461.266H204.368Z" fill="#FEAD51"/>
<path d="M239.809 462.622C239.809 462.696 231.164 462.757 220.503 462.757C209.838 462.757 201.195 462.697 201.195 462.622C201.195 462.548 209.838 462.487 220.503 462.487C231.164 462.487 239.809 462.547 239.809 462.622Z" fill="#263238"/>
<path d="M381.57 219.587L379.538 214.764C380.746 210.997 380.851 206.82 379.561 202.706C376.519 193.001 366.401 187.097 356.451 189.201C344.954 191.633 338.009 203.413 341.558 214.708C344.57 224.297 354.486 230.187 364.351 228.262C369.246 227.306 373.332 224.66 376.171 221.073L376.167 221.083L381.57 219.587Z" fill="white"/>
<path d="M381.57 219.587C381.577 219.591 381.466 219.627 381.241 219.696C380.989 219.771 380.652 219.872 380.222 220.001C379.279 220.276 377.929 220.668 376.192 221.174C376.142 221.189 376.089 221.16 376.075 221.11C376.069 221.088 376.071 221.064 376.079 221.045L376.083 221.035L376.246 221.132C374.72 223.083 372.283 225.465 368.647 227.077C366.841 227.885 364.755 228.464 362.476 228.71C360.197 228.936 357.724 228.767 355.245 228.091C352.771 227.405 350.303 226.198 348.093 224.463C345.892 222.73 343.915 220.479 342.579 217.768C341.224 215.075 340.45 211.984 340.413 208.799C340.355 205.61 341.162 202.347 342.695 199.406C344.234 196.423 346.491 193.881 349.169 192.088C351.829 190.267 354.856 189.169 357.868 188.745C360.889 188.304 363.892 188.681 366.586 189.533C369.286 190.395 371.687 191.779 373.653 193.458C375.615 195.146 377.146 197.115 378.239 199.141C378.487 199.66 378.732 200.17 378.972 200.672C379.2 201.179 379.359 201.705 379.551 202.205C379.918 203.214 380.148 204.225 380.324 205.199C381.008 209.124 380.389 212.466 379.627 214.793L379.624 214.729C380.255 216.286 380.747 217.502 381.093 218.356C381.247 218.745 381.369 219.052 381.46 219.282C381.54 219.487 381.577 219.59 381.57 219.587C381.563 219.583 381.51 219.473 381.414 219.262C381.311 219.031 381.173 218.723 380.999 218.332C380.635 217.501 380.116 216.317 379.452 214.8C379.443 214.78 379.443 214.755 379.449 214.735C380.164 212.416 380.735 209.11 380.027 205.25C379.845 204.292 379.61 203.298 379.242 202.308C379.05 201.817 378.89 201.301 378.662 200.805C378.423 200.313 378.179 199.813 377.931 199.305C376.845 197.322 375.331 195.399 373.398 193.752C371.462 192.115 369.103 190.769 366.456 189.935C363.816 189.11 360.878 188.75 357.927 189.188C354.983 189.61 352.027 190.689 349.431 192.469C346.818 194.222 344.615 196.706 343.111 199.621C341.614 202.493 340.823 205.68 340.877 208.794C340.91 211.905 341.661 214.929 342.979 217.563C344.278 220.216 346.205 222.422 348.354 224.127C350.512 225.833 352.926 227.027 355.348 227.711C357.776 228.385 360.201 228.565 362.44 228.358C364.68 228.131 366.737 227.577 368.522 226.797C372.116 225.242 374.55 222.92 376.094 221.013C376.126 220.971 376.186 220.964 376.228 220.996C376.263 221.023 376.273 221.071 376.257 221.11L376.253 221.12L376.14 220.99C377.865 220.537 379.206 220.186 380.142 219.94C380.587 219.827 380.935 219.738 381.195 219.671C381.436 219.612 381.562 219.583 381.57 219.587Z" fill="#263238"/>
<path d="M353.746 211.411C354.949 211.411 355.925 210.435 355.925 209.232C355.925 208.029 354.949 207.053 353.746 207.053C352.542 207.053 351.567 208.029 351.567 209.232C351.567 210.435 352.542 211.411 353.746 211.411Z" fill="#263238"/>
<path d="M363.267 209.232C363.267 210.436 362.291 211.411 361.088 211.411C359.884 211.411 358.908 210.435 358.908 209.232C358.908 208.028 359.884 207.053 361.088 207.053C362.291 207.053 363.267 208.029 363.267 209.232Z" fill="#263238"/>
<path d="M368.235 211.411C369.438 211.411 370.414 210.435 370.414 209.232C370.414 208.029 369.438 207.053 368.235 207.053C367.031 207.053 366.056 208.029 366.056 209.232C366.056 210.435 367.031 211.411 368.235 211.411Z" fill="#263238"/>
<path d="M116.908 178.486L117.856 172.923C116.178 169.984 115.265 166.56 115.386 162.929C115.734 152.488 124.48 144.306 134.921 144.654C145.362 145.002 153.544 153.748 153.196 164.189C152.848 174.63 144.102 182.812 133.661 182.464C129.301 182.319 125.339 180.705 122.223 178.12L122.229 178.129L116.908 178.486Z" fill="white"/>
<path d="M116.908 178.486C116.903 178.491 117.014 178.488 117.24 178.478C117.486 178.466 117.821 178.449 118.252 178.428C119.178 178.377 120.514 178.303 122.236 178.207C122.279 178.205 122.313 178.167 122.31 178.124C122.309 178.109 122.303 178.094 122.295 178.082L122.289 178.073L122.174 178.18C123.984 179.7 126.737 181.425 130.449 182.211C131.373 182.402 132.35 182.533 133.368 182.585C133.877 182.619 134.397 182.582 134.925 182.584C135.189 182.575 135.456 182.588 135.724 182.561C135.991 182.53 136.26 182.499 136.531 182.468C138.698 182.224 140.975 181.584 143.147 180.447C145.317 179.315 147.378 177.689 149.074 175.613C150.771 173.542 152.096 171.018 152.811 168.228C153.535 165.442 153.578 162.394 152.93 159.427C152.642 157.931 152.065 156.493 151.42 155.082C150.689 153.714 149.877 152.356 148.818 151.174C147.823 149.956 146.628 148.941 145.401 148.014C144.124 147.156 142.809 146.361 141.392 145.838C138.595 144.72 135.604 144.272 132.759 144.527C129.912 144.764 127.22 145.639 124.91 146.954C122.594 148.267 120.657 150.012 119.179 151.944C116.202 155.833 115.131 160.351 115.259 164.094C115.378 167.878 116.588 170.903 117.787 172.965L117.777 172.911C117.49 174.718 117.269 176.116 117.115 177.083C117.046 177.535 116.993 177.885 116.954 178.141C116.918 178.374 116.903 178.491 116.908 178.486C116.908 178.486 116.939 178.355 116.986 178.112C117.035 177.853 117.102 177.498 117.188 177.04C117.361 176.089 117.612 174.714 117.936 172.937C117.94 172.918 117.935 172.898 117.926 172.883C116.766 170.821 115.601 167.82 115.512 164.086C115.413 160.391 116.495 155.952 119.436 152.143C120.897 150.25 122.806 148.544 125.082 147.262C127.354 145.978 129.994 145.126 132.786 144.9C135.576 144.654 138.507 145.099 141.245 146.196C142.633 146.708 143.92 147.49 145.171 148.33C146.372 149.239 147.544 150.233 148.518 151.427C149.556 152.585 150.351 153.916 151.068 155.255C151.699 156.637 152.267 158.045 152.55 159.51C153.187 162.415 153.15 165.404 152.446 168.136C151.751 170.872 150.457 173.35 148.798 175.388C147.14 177.431 145.122 179.036 142.993 180.157C140.863 181.284 138.628 181.925 136.495 182.177C136.228 182.21 135.963 182.242 135.7 182.274C135.437 182.302 135.173 182.291 134.914 182.301C134.394 182.302 133.881 182.343 133.379 182.312C132.374 182.267 131.41 182.145 130.497 181.964C126.83 181.217 124.09 179.54 122.273 178.059C122.239 178.031 122.19 178.035 122.161 178.069C122.137 178.097 122.137 178.138 122.157 178.166L122.163 178.174L122.222 178.049C120.525 178.184 119.209 178.288 118.296 178.361C117.857 178.398 117.516 178.427 117.266 178.448C117.036 178.469 116.908 178.486 116.908 178.486Z" fill="#263238"/>
<path d="M126.116 164.859L128.204 162.771L132.231 166.351L140.135 158.745L142.074 160.833L131.933 170.377L126.116 164.859Z" fill="#FF725E"/>
<path d="M461.417 382.918C461.442 382.683 461.464 382.449 461.474 382.215C461.675 377.715 459.847 373.403 458.088 369.254C453.371 358.133 448.808 346.334 450.134 334.332C451.887 318.461 463.557 305.335 467.723 289.985C468.213 288.178 469.872 286.935 471.749 286.935C474.566 286.935 476.611 289.665 475.747 292.339C471.107 306.694 460.521 319.278 458.859 334.332C457.534 346.334 462.097 358.133 466.813 369.254C468.572 373.402 470.4 377.715 470.199 382.215C469.999 386.715 467.104 391.444 462.645 392.165H462.213H453.921H396.325C394.014 392.165 392.141 390.297 392.141 387.994V387.09C392.141 384.786 394.014 382.918 396.325 382.918H461.417Z" fill="#455A64"/>
<path d="M474.753 482.342H378.514C377.17 482.342 375.919 481.682 375.083 480.529C374.124 479.207 373.861 477.469 374.38 475.879L401.775 391.931L403.204 392.398L375.809 476.346C375.439 477.48 375.622 478.714 376.299 479.646C376.849 480.404 377.656 480.839 378.514 480.839H474.753C475.598 480.839 476.371 480.435 476.927 479.702C477.601 478.813 477.816 477.614 477.504 476.495L453.96 392.367L455.407 391.962L478.95 476.09C479.389 477.66 479.08 479.35 478.123 480.611C477.29 481.711 476.061 482.342 474.753 482.342Z" fill="#E0E0E0"/>
<path d="M339.773 329.966C339.773 329.966 343.278 321.449 346.74 319.647C350.202 317.846 354.611 316.694 354.611 316.694H370.025L370.178 326.673C370.178 326.673 367.952 328.905 364.901 328.483C361.85 328.061 354.233 326.178 354.233 326.178L350.473 326.384L347.008 330.828C347.008 330.828 344.195 331.683 345.185 329.021C346.175 326.359 346.617 325.186 346.617 325.186C346.617 325.186 343.289 330.365 342.012 330.603C340.735 330.841 339.773 329.966 339.773 329.966Z" fill="#CC7D69"/>
<path d="M403.479 297.846L391.213 315.489L370.026 316.695L369.737 326.374L385.701 329.517C393.993 331.149 402.558 328.607 408.615 322.714L410.951 301.375L403.479 297.846Z" fill="#EFAD97"/>
<path d="M393.966 444.173L408.223 458.115C408.223 458.115 397.93 477.988 400.298 480.833L430.06 452.828L408.794 430.149L393.966 444.173Z" fill="#202020"/>
<path d="M416.273 448.24C416.99 447.847 417.967 448.083 418.354 448.758C418.741 449.433 418.453 450.436 417.742 450.842C417.032 451.248 415.848 451 415.542 450.282C415.236 449.565 415.638 448.401 416.417 448.171" fill="#E0E0E0"/>
<path d="M430.06 452.829L427.822 450.631L400.124 478.304C400.124 478.304 399.314 480.095 400.298 480.834L430.06 452.829Z" fill="#455A64"/>
<path d="M407.606 458.427C407.741 458.56 408.527 457.938 409.659 457.706C410.788 457.445 411.719 457.692 411.801 457.512C411.91 457.36 410.916 456.744 409.548 457.049C408.179 457.34 407.455 458.331 407.606 458.427Z" fill="white"/>
<path d="M405.638 462.582C405.731 462.746 406.581 462.387 407.624 462.502C408.672 462.587 409.391 463.097 409.53 462.954C409.687 462.847 409.027 461.95 407.725 461.831C406.427 461.701 405.518 462.448 405.638 462.582Z" fill="white"/>
<path d="M407.206 467.775C407.366 467.68 406.919 466.805 405.834 466.405C404.752 465.997 403.786 466.346 403.833 466.518C403.858 466.708 404.681 466.696 405.566 467.038C406.46 467.358 407.049 467.897 407.206 467.775Z" fill="white"/>
<path d="M404.732 454.871C404.912 454.939 405.399 454.122 406.27 453.402C407.128 452.665 408.013 452.323 407.977 452.134C407.967 451.956 406.862 452.036 405.847 452.898C404.826 453.753 404.558 454.831 404.732 454.871Z" fill="white"/>
<path d="M395.642 344.798C393.035 344.798 329.527 363.298 322.655 369.551C315.783 375.805 310.642 453.191 310.642 453.191L337.271 462.321C337.271 462.321 342.883 424.527 346.285 412.32C348.989 402.617 348.367 393.556 348.367 393.556L401.093 370.594L395.642 344.798Z" fill="#202020"/>
<path d="M397.243 348.89C396.058 349.411 349.916 369.112 345.579 382.311C342.045 393.067 346.154 402.537 351.09 409.939C356.663 418.295 397.532 455.588 397.532 455.588L420.598 439.095L381.052 398.255C381.052 398.255 401.801 385.446 402.512 385.446C403.223 385.446 424.792 384.02 431.629 383.246C438.014 382.523 441.507 373.368 441.507 373.368L447.202 347.119L404.408 337.243L397.243 348.89Z" fill="#202020"/>
<path d="M397.243 348.89C397.243 348.89 397.391 348.627 397.694 348.123C398.002 347.615 398.454 346.868 399.05 345.885C400.254 343.912 402.033 340.999 404.349 337.205L404.376 337.161L404.426 337.173C413.97 339.36 428.674 342.73 447.235 346.984L447.367 347.014L447.338 347.147C445.633 355.038 443.718 363.903 441.666 373.401L441.663 373.415L441.659 373.425C440.683 375.773 439.366 378.033 437.596 380.005C436.709 380.985 435.663 381.855 434.467 382.495C434.171 382.662 433.869 382.819 433.541 382.921C433.216 383.025 432.908 383.191 432.564 383.234C432.227 383.297 431.888 383.377 431.55 383.425L430.539 383.532C425.137 384.066 419.549 384.465 413.802 384.884C410.928 385.08 408.014 385.279 405.063 385.48C404.324 385.525 403.583 385.57 402.839 385.615L402.553 385.627C402.491 385.624 402.499 385.647 402.471 385.649C402.454 385.651 402.397 385.681 402.362 385.696C402.203 385.765 402.037 385.858 401.874 385.941L400.897 386.481C399.599 387.22 398.303 387.987 397.003 388.762C391.806 391.869 386.525 395.107 381.153 398.416L381.19 398.121C391.039 408.29 401.414 419.003 412.073 430.008C414.985 433.016 417.876 436.001 420.739 438.958L420.897 439.121L420.713 439.253C412.846 444.876 405.141 450.384 397.644 455.743L397.518 455.833L397.404 455.728C389.145 448.158 381.213 440.751 373.684 433.552C369.92 429.953 366.259 426.403 362.738 422.881C359.218 419.36 355.8 415.901 352.721 412.298C352.318 411.864 351.986 411.368 351.62 410.905C351.262 410.435 350.895 409.973 350.594 409.472C349.956 408.494 349.348 407.505 348.787 406.499C347.656 404.493 346.682 402.433 345.921 400.33C345.162 398.227 344.61 396.082 344.331 393.933C344.058 391.783 344.053 389.64 344.287 387.564C344.512 385.484 344.993 383.478 345.725 381.594C346.535 379.725 347.819 378.183 349.129 376.777C351.818 374.006 354.766 371.769 357.64 369.767C363.413 365.785 368.926 362.698 373.786 360.094C378.654 357.497 382.903 355.42 386.383 353.768C389.864 352.117 392.581 350.9 394.424 350.089C395.344 349.691 396.045 349.388 396.523 349.181C396.998 348.983 397.243 348.89 397.243 348.89C397.243 348.89 397.006 349.006 396.537 349.216C396.062 349.43 395.365 349.744 394.452 350.155C392.618 350.986 389.911 352.223 386.441 353.892C382.971 355.562 378.733 357.656 373.878 360.268C369.031 362.887 363.531 365.987 357.782 369.974C354.92 371.976 351.986 374.215 349.326 376.968C348.032 378.362 346.768 379.893 345.987 381.707C345.277 383.545 344.797 385.55 344.581 387.601C344.353 389.654 344.361 391.772 344.635 393.897C344.914 396.022 345.464 398.144 346.219 400.226C346.976 402.309 347.945 404.351 349.071 406.343C349.629 407.342 350.235 408.324 350.871 409.296C351.173 409.795 351.535 410.249 351.888 410.711C352.25 411.168 352.574 411.654 352.978 412.087C356.046 415.667 359.467 419.123 362.987 422.637C366.508 426.153 370.171 429.697 373.937 433.292C381.469 440.482 389.404 447.884 397.663 455.448L397.423 455.434C404.918 450.073 412.622 444.563 420.487 438.938L420.46 439.233C417.597 436.276 414.706 433.291 411.793 430.283C401.137 419.275 390.764 408.56 380.917 398.389L380.752 398.218L380.954 398.094C386.329 394.786 391.612 391.551 396.814 388.446C398.116 387.671 399.412 386.904 400.716 386.164L401.702 385.62C401.872 385.534 402.031 385.444 402.214 385.364C402.265 385.343 402.289 385.324 402.362 385.302C402.424 385.284 402.518 385.259 402.551 385.263L402.822 385.251C403.564 385.207 404.303 385.162 405.04 385.118C407.99 384.919 410.903 384.723 413.777 384.529C419.522 384.116 425.113 383.721 430.505 383.195C431.868 383.108 433.153 382.835 434.31 382.2C435.463 381.585 436.483 380.742 437.353 379.783C439.088 377.858 440.402 375.611 441.36 373.312L441.353 373.335C443.421 363.841 445.351 354.979 447.07 347.091L447.174 347.254C428.626 342.944 413.932 339.529 404.395 337.313L404.471 337.281C402.125 341.064 400.323 343.97 399.104 345.937C398.496 346.91 398.035 347.649 397.72 348.152C397.408 348.645 397.243 348.89 397.243 348.89Z" fill="#455A64"/>
<path d="M401.441 222.672C399.363 223.095 397.076 221.741 396.446 219.717C395.816 217.692 396.933 215.281 398.884 214.45C397.462 213.227 396.943 211.061 397.657 209.326C398.37 207.591 400.262 206.417 402.133 206.547C402.049 204.697 402.996 202.832 404.541 201.81C406.085 200.787 408.171 200.643 409.842 201.443C411.727 199.517 415.007 199.165 417.259 200.645C419.022 200.157 421.06 200.941 422.042 202.484C423.024 204.027 422.871 206.205 421.683 207.595" fill="#202020"/>
<path d="M418.558 204.819L417.611 204.903C408.08 205.745 400.794 213.764 400.868 223.332C400.937 232.231 401.127 242.061 401.604 246.796C402.593 256.6 412.545 257.258 412.545 257.258L412.758 269.123L436.513 266.279L434.839 223.327C434.816 213.059 428.822 204.513 418.558 204.819Z" fill="#EFAD97"/>
<path d="M412.532 257.257C412.532 257.257 418.764 257.074 424.99 252.35C424.99 252.35 422.463 259.859 412.591 259.841L412.532 257.257Z" fill="#CC7D69"/>
<path d="M404.41 232.433C404.449 233.175 405.11 233.755 405.887 233.728C406.662 233.701 407.259 233.079 407.22 232.337C407.181 231.595 406.52 231.015 405.745 231.041C404.968 231.068 404.37 231.691 404.41 232.433Z" fill="#202020"/>
<path d="M403.403 227.947C403.593 228.115 404.585 227.235 406.094 227.105C407.599 226.954 408.775 227.632 408.922 227.433C408.995 227.344 408.789 227.029 408.276 226.721C407.771 226.413 406.931 226.145 405.992 226.232C405.053 226.32 404.293 226.736 403.87 227.13C403.437 227.529 403.31 227.873 403.403 227.947Z" fill="#202020"/>
<path d="M417.971 231.652C418.01 232.394 418.672 232.973 419.448 232.946C420.223 232.92 420.82 232.297 420.781 231.555C420.742 230.813 420.08 230.233 419.306 230.26C418.53 230.286 417.932 230.91 417.971 231.652Z" fill="#202020"/>
<path d="M418.253 226.918C418.443 227.085 419.437 226.206 420.944 226.077C422.449 225.926 423.624 226.604 423.772 226.405C423.845 226.316 423.641 226.001 423.126 225.694C422.621 225.387 421.782 225.118 420.843 225.205C419.904 225.293 419.144 225.709 418.721 226.103C418.289 226.499 418.16 226.844 418.253 226.918Z" fill="#202020"/>
<path d="M413.768 238.587C413.768 238.5 412.816 238.421 411.279 238.361C410.89 238.355 410.519 238.311 410.431 238.054C410.316 237.784 410.44 237.354 410.587 236.89C410.867 235.926 411.159 234.916 411.466 233.857C412.679 229.542 413.52 226.007 413.346 225.96C413.172 225.913 412.048 229.372 410.835 233.687C410.545 234.75 410.268 235.764 410.005 236.733C409.898 237.184 409.691 237.702 409.939 238.262C410.068 238.541 410.369 238.725 410.622 238.769C410.876 238.822 411.093 238.808 411.284 238.802C412.821 238.75 413.77 238.673 413.768 238.587Z" fill="#202020"/>
<path d="M416.432 221.23C416.665 221.595 417.921 221.066 419.508 220.874C421.09 220.646 422.458 220.827 422.568 220.417C422.614 220.222 422.301 219.904 421.7 219.648C421.104 219.392 420.218 219.232 419.268 219.357C418.318 219.484 417.518 219.867 417.026 220.267C416.529 220.669 416.327 221.056 416.432 221.23Z" fill="#202020"/>
<path d="M402.78 221.734C403.128 222.048 404.341 221.583 405.837 221.434C407.328 221.241 408.622 221.42 408.882 221.036C408.995 220.851 408.765 220.525 408.182 220.25C407.608 219.975 406.671 219.792 405.645 219.909C404.619 220.027 403.755 220.416 403.265 220.813C402.767 221.212 402.624 221.58 402.78 221.734Z" fill="#202020"/>
<path d="M401.414 218.747C401.414 218.747 403.459 212.372 406.296 210.675C409.73 208.622 411.623 212.423 414.958 211.165C418.293 209.907 421.571 207.938 425.299 210.272C429.38 212.827 427.767 215.015 428.388 219.349C430.907 236.92 434.573 241.628 434.755 233.23C434.775 232.31 437.239 231.362 437.274 227.479C437.318 222.444 436.975 216.367 435.547 212.923C434.344 210.02 432.459 208.108 429.205 206.103C424.069 202.939 417.443 203.447 412.988 204.297C408.533 205.148 400.324 211.087 401.414 218.747Z" fill="#202020"/>
<path d="M434.106 233.02C434.034 231.5 435.233 230.188 436.755 230.198C438.601 230.21 440.73 231.069 440.943 234.863C441.322 241.592 434.488 240.584 434.466 240.392C434.451 240.261 434.24 235.837 434.106 233.02Z" fill="#EFAD97"/>
<path d="M435.788 237.777C435.816 237.754 435.91 237.853 436.113 237.932C436.311 238.01 436.647 238.052 436.99 237.901C437.686 237.6 438.221 236.438 438.186 235.223C438.169 234.61 438.008 234.034 437.763 233.563C437.53 233.082 437.192 232.756 436.831 232.713C436.47 232.65 436.229 232.879 436.157 233.073C436.077 233.266 436.127 233.398 436.093 233.412C436.075 233.43 435.942 233.307 435.981 233.026C436.001 232.891 436.071 232.728 436.222 232.59C436.376 232.45 436.61 232.369 436.86 232.382C437.381 232.389 437.875 232.84 438.143 233.356C438.44 233.873 438.636 234.52 438.655 235.208C438.688 236.567 438.066 237.875 437.109 238.21C436.642 238.36 436.24 238.24 436.027 238.093C435.809 237.939 435.765 237.791 435.788 237.777Z" fill="#CC7D69"/>
<path d="M432.825 220.031C432.006 220.703 431.14 221.398 430.099 221.595C429.058 221.792 427.804 221.295 427.535 220.27C427.414 219.81 427.48 219.258 427.141 218.924C426.737 218.526 426.072 218.72 425.516 218.83C423.583 219.209 421.114 217.256 420.449 215.402C420.017 216.191 418.948 216.513 418.151 216.094C417.355 215.675 417.056 215.423 416.407 214.8C415.758 214.177 414.878 213.647 414.002 213.851C413.512 213.965 413.074 214.302 412.571 214.302C411.683 214.302 411.161 213.308 410.951 212.445C410.74 211.582 410.546 210.571 409.758 210.162C409.028 209.782 408.154 210.116 407.353 210.308C406.553 210.499 405.488 210.401 405.211 209.626C405.065 209.22 405.205 208.766 405.404 208.383C406.303 206.646 408.517 205.714 410.388 206.284C410.848 204.009 412.769 202.1 415.048 201.654C417.326 201.208 419.825 202.252 421.109 204.185C422.414 202.773 424.426 202.051 426.331 202.312C428.236 202.573 429.98 203.809 430.857 205.52C432.451 204.946 434.368 205.413 435.52 206.655C436.672 207.898 436.992 209.844 436.3 211.39C437.567 211.972 438.706 213.08 438.853 214.466C439.001 215.853 437.77 217.356 436.398 217.109C437.035 218.142 436.724 219.649 435.73 220.346C434.735 221.043 433.213 220.821 432.459 219.869" fill="#202020"/>
<path d="M410.064 208.301C410.058 208.302 410.063 208.343 410.076 208.424C410.092 208.504 410.107 208.625 410.15 208.779C410.239 209.083 410.404 209.531 410.752 210.029C411.101 210.519 411.623 211.073 412.38 211.484C413.123 211.901 414.117 212.18 415.198 212.025L415.071 211.887C414.913 212.479 415.031 213.163 415.369 213.728C415.693 214.304 416.166 214.798 416.663 215.277C416.916 215.505 417.143 215.78 417.482 215.981C417.812 216.173 418.195 216.267 418.58 216.282C419.345 216.312 420.179 216.002 420.671 215.317L420.414 215.268C420.703 216.587 421.579 217.854 422.857 218.562C423.535 218.967 424.35 219.179 425.124 219.089C425.9 219.013 426.602 218.721 427.253 218.42L427.067 218.357C427.501 219.159 428.118 219.822 428.838 220.288C429.545 220.754 430.453 220.984 431.232 220.718C432.786 220.243 433.72 218.833 433.822 217.574L433.676 217.658C434.5 218.017 435.347 217.983 436.012 217.793C436.687 217.607 437.199 217.261 437.556 216.934C437.915 216.6 438.115 216.273 438.233 216.048C438.339 215.816 438.38 215.689 438.372 215.686C438.336 215.661 438.195 216.216 437.48 216.85C437.122 217.154 436.62 217.473 435.969 217.636C435.328 217.805 434.524 217.817 433.762 217.471L433.63 217.411L433.616 217.555C433.505 218.731 432.602 220.049 431.16 220.473C430.453 220.706 429.655 220.5 428.985 220.059C428.312 219.619 427.723 218.98 427.319 218.226L427.255 218.106L427.132 218.162C426.49 218.456 425.813 218.731 425.095 218.799C424.378 218.878 423.648 218.69 423.001 218.307C421.794 217.638 420.972 216.452 420.692 215.204L420.622 214.89L420.435 215.154C420.02 215.74 419.276 216.031 418.588 216.006C418.243 215.995 417.903 215.913 417.615 215.748C417.335 215.59 417.1 215.319 416.843 215.089C416.347 214.62 415.887 214.145 415.58 213.609C415.259 213.081 415.154 212.481 415.286 211.945L415.327 211.78L415.159 211.806C414.142 211.966 413.187 211.717 412.462 211.329C411.724 210.948 411.205 210.423 410.851 209.959C410.154 208.994 410.111 208.281 410.064 208.301Z" fill="#455A64"/>
<path d="M413.897 243.417C413.912 243.164 415.594 243.362 416.96 242.067C418.33 240.775 418.357 238.96 418.593 238.976C418.701 238.965 418.872 239.414 418.801 240.173C418.737 240.918 418.368 241.973 417.533 242.765C416.696 243.554 415.674 243.814 414.978 243.789C414.267 243.769 413.873 243.531 413.897 243.417Z" fill="#202020"/>
<path d="M316.696 443.232L313.595 464.76C313.595 464.76 289.471 468.487 288.49 472.403L332.305 480.585L338.588 447.263L316.696 443.232Z" fill="#202020"/>
<path d="M327.473 465.491C328.281 465.869 328.701 466.881 328.356 467.656C328.011 468.431 326.942 468.823 326.127 468.458C325.313 468.094 324.769 466.892 325.204 466.161C325.639 465.43 326.922 465.035 327.626 465.573" fill="#E0E0E0"/>
<path d="M332.305 480.584L332.799 477.198L290.605 470.62C290.605 470.62 288.507 471.06 288.49 472.402L332.305 480.584Z" fill="#455A64"/>
<path d="M312.924 464.416C312.894 464.62 313.947 464.912 314.88 465.76C315.836 466.586 316.219 467.565 316.43 467.521C316.634 467.518 316.537 466.247 315.388 465.239C314.25 464.221 312.912 464.221 312.924 464.416Z" fill="white"/>
<path d="M307.999 465.358C307.914 465.545 308.778 466.063 309.348 467.056C309.948 468.034 309.962 468.995 310.177 469.025C310.372 469.095 310.737 467.935 310.004 466.713C309.282 465.485 308.039 465.165 307.999 465.358Z" fill="white"/>
<path d="M304.436 470.08C304.623 470.159 305.105 469.203 304.759 467.99C304.422 466.775 303.493 466.149 303.371 466.301C303.22 466.445 303.76 467.162 304.029 468.161C304.322 469.154 304.227 470.02 304.436 470.08Z" fill="white"/>
<path d="M314.205 459.596C314.261 459.798 315.294 459.701 316.489 460.005C317.69 460.286 318.561 460.846 318.704 460.693C318.855 460.569 318.073 459.648 316.661 459.309C315.251 458.96 314.129 459.418 314.205 459.596Z" fill="white"/>
<path d="M411.681 270.651L412.581 266.578L436.513 254.694L438.6 257.951C438.6 257.951 447.556 265.239 450.985 271.564C454.414 277.889 450.347 329.683 449.775 337.242C448.622 352.474 442.93 372.41 442.93 372.41C442.93 372.41 435.251 367.064 412.659 357.788C390.067 348.512 388.856 344.313 388.856 344.313L402.169 327.43L411.681 270.651Z" fill="#FF6E14"/>
<path d="M412.042 272.076C411.908 272.827 401.092 298.802 401.092 298.802C401.092 298.802 406.712 301.937 407.496 302.094C408.279 302.251 412.042 272.076 412.042 272.076Z" fill="#FF6E14"/>
<path d="M410.952 276.335C411.059 276.352 410.099 282.952 408.809 291.076C407.518 299.202 406.386 305.773 406.279 305.756C406.172 305.739 407.132 299.14 408.422 291.014C409.713 282.891 410.845 276.318 410.952 276.335Z" fill="#202020"/>
<path d="M335.033 328.298C335.033 328.298 341.479 318.787 345.321 317.117C349.162 315.447 353.969 314.543 353.969 314.543L370.178 316.71L369.89 326.389C369.89 326.389 367.34 328.612 364.105 327.932C360.87 327.252 352.855 324.667 352.855 324.667L348.814 324.606L344.772 329.105C344.772 329.105 341.696 329.81 342.955 327.034C344.214 324.258 344.775 323.035 344.775 323.035C344.775 323.035 340.825 328.331 339.44 328.491C338.055 328.652 335.033 328.298 335.033 328.298Z" fill="#EFAD97"/>
<path d="M419.738 290.204L408.5 316.319L370.025 316.694L369.736 326.373C369.736 326.373 406.838 339.455 416.718 336.914C426.598 334.373 442.983 299.436 442.983 299.436L419.738 290.204Z" fill="#EFAD97"/>
<path d="M428.837 268.17C427.786 269.123 424.31 273.207 420.599 282.084C416.888 290.962 411.681 301.336 411.681 301.336L438.206 311.909C438.206 311.909 444.253 297.997 447.059 291.807C449.196 287.094 450.692 277.824 448.745 273.338C446.798 268.852 438.075 259.794 428.837 268.17Z" fill="#FF6E14"/>
<path d="M428.837 268.17C428.837 268.17 428.915 268.086 429.08 267.937C429.249 267.792 429.486 267.559 429.829 267.292C430.508 266.754 431.561 265.99 433.099 265.359C434.631 264.762 436.73 264.361 439.05 264.918C441.363 265.439 443.772 266.861 445.847 268.982C446.882 270.045 447.856 271.279 448.617 272.723C449.364 274.189 449.684 275.895 449.772 277.634C449.938 281.125 449.442 284.858 448.391 288.633C447.882 290.533 447.01 292.368 446.197 294.23C445.375 296.1 444.536 298.009 443.682 299.953C441.972 303.84 440.2 307.865 438.386 311.989L438.309 312.163L438.133 312.093C438.012 312.045 437.88 311.992 437.749 311.94C428.355 308.188 419.458 304.635 411.615 301.502L411.437 301.431L411.523 301.259C414.001 296.294 416.195 291.668 418.074 287.522C419.969 283.387 421.397 279.648 422.965 276.734C424.486 273.803 425.922 271.615 427.011 270.205C427.553 269.498 428.005 268.983 428.324 268.649C428.645 268.315 428.837 268.17 428.837 268.17C428.84 268.174 428.8 268.218 428.719 268.303C428.629 268.4 428.513 268.526 428.365 268.686C428.061 269.031 427.625 269.556 427.1 270.271C426.044 271.696 424.642 273.894 423.153 276.829C421.619 279.743 420.219 283.485 418.342 287.64C416.483 291.801 414.307 296.436 411.839 301.415L411.747 301.172C419.594 304.294 428.495 307.835 437.895 311.574C438.027 311.627 438.158 311.679 438.279 311.727L438.027 311.831C439.845 307.707 441.619 303.682 443.332 299.795C444.19 297.852 445.032 295.944 445.857 294.075C446.68 292.199 447.537 290.408 448.046 288.531C449.096 284.8 449.601 281.091 449.45 277.65C449.37 275.933 449.063 274.274 448.35 272.859C447.616 271.449 446.663 270.225 445.65 269.173C443.618 267.071 441.261 265.659 439.001 265.129C436.734 264.564 434.675 264.933 433.154 265.5C431.628 266.101 430.568 266.838 429.877 267.354C429.528 267.609 429.283 267.833 429.106 267.967C428.933 268.106 428.837 268.17 428.837 268.17Z" fill="#202020"/>
<path d="M352.04 319.431C352.05 319.556 350.047 319.379 347.938 320.469C345.809 321.521 344.764 323.239 344.669 323.156C344.631 323.134 344.829 322.677 345.331 322.054C345.829 321.432 346.667 320.675 347.762 320.119C348.859 319.567 349.965 319.342 350.761 319.31C351.56 319.276 352.045 319.387 352.04 319.431Z" fill="#CC7D69"/>
<path d="M414.47 302.448C414.479 302.452 414.45 302.544 414.385 302.718C414.306 302.921 414.207 303.172 414.087 303.48C413.798 304.181 413.403 305.141 412.911 306.338C411.861 308.824 410.396 312.289 408.663 316.389L408.619 316.494L408.503 316.495C405.003 316.535 401.025 316.581 396.817 316.629C389.438 316.679 382.759 316.723 377.873 316.756C375.482 316.753 373.532 316.751 372.132 316.75C371.485 316.741 370.966 316.734 370.571 316.728C370.214 316.719 370.026 316.707 370.026 316.694C370.026 316.68 370.213 316.665 370.57 316.649C370.965 316.636 371.484 316.619 372.13 316.597C373.53 316.568 375.479 316.528 377.87 316.479C382.756 316.417 389.434 316.331 396.813 316.237C401.021 316.203 405 316.171 408.499 316.143L408.339 316.249C410.125 312.172 411.634 308.726 412.717 306.254C413.248 305.073 413.673 304.127 413.984 303.435C414.125 303.136 414.239 302.892 414.332 302.695C414.414 302.528 414.461 302.444 414.47 302.448Z" fill="#CC7D69"/>
<path d="M74.035 337.242H66.629V482.153H74.035V337.242Z" fill="#455A64"/>
<path d="M378.031 338.263H370.625V482.169H378.031V338.263Z" fill="#455A64"/>
<path d="M385.368 335.813H48.126V344.557H385.368V335.813Z" fill="#455A64"/>
<path d="M382.121 344.558C382.121 344.666 342.767 344.754 294.233 344.754C245.682 344.754 206.337 344.666 206.337 344.558C206.337 344.45 245.682 344.362 294.233 344.362C342.768 344.363 382.121 344.45 382.121 344.558Z" fill="#263238"/>
<path d="M285.05 284.663C285.937 284.496 286.792 285.079 286.96 285.966L296.086 334.328H340.464C341.128 334.328 341.665 334.866 341.665 335.529C341.665 336.192 341.127 336.73 340.464 336.73H293.398V336.537L293.183 336.578L283.747 286.572C283.579 285.685 284.163 284.83 285.05 284.663Z" fill="#263238"/>
<path d="M62.6441 171.817C66.8671 165.602 72.9351 161.699 80.4071 160.908C84.6231 160.462 86.4481 161.183 89.5621 161.733C92.6761 162.282 95.5651 163.669 97.6081 166.082C100.035 168.948 102.15 172.211 102.889 175.893C103.648 179.675 103.689 183.438 103.238 186.582C102.689 190.4 100.632 196.346 98.6531 199.658L92.2431 201.023C86.8751 201.686 81.4321 202.349 76.0771 201.589C70.7221 200.828 65.3741 198.46 62.1551 194.114C57.6831 188.075 58.4211 178.033 62.6441 171.817Z" fill="#202020"/>
<path d="M71.313 170.98L83.849 164.655L87.279 164.747C94.921 164.093 100.941 172.049 101.543 178.232C102.211 185.101 102.757 193.514 102.116 198.679C100.828 209.063 92.208 210.686 92.208 210.686C92.208 210.686 93.653 222.797 94.023 226.212L73.214 219.852L68.188 174.775C68.087 172.891 69.444 171.242 71.313 170.98Z" fill="#FFBF9D"/>
<path d="M86.621 197.656C86.644 197.113 86.9 196.611 87.252 196.251C87.955 195.531 89.062 195.368 89.927 195.858C90.792 196.348 91.361 197.459 91.303 198.545C90.902 199.214 90.24 199.701 89.471 199.837C89.352 199.858 89.231 199.873 89.109 199.881C88.52 199.918 87.905 199.773 87.418 199.38C86.932 198.988 86.593 198.327 86.621 197.656Z" fill="#FF9A6C"/>
<path d="M99.553 187.509C99.602 188.208 99.05 188.825 98.321 188.889C97.594 188.953 96.963 188.44 96.915 187.742C96.866 187.043 97.418 186.425 98.145 186.361C98.874 186.297 99.504 186.811 99.553 187.509Z" fill="#202020"/>
<path d="M99.5211 181.876C99.3631 182.054 98.3341 181.346 96.9081 181.398C95.4841 181.43 94.4621 182.199 94.3021 182.029C94.2231 181.954 94.3801 181.637 94.8241 181.29C95.2611 180.945 96.0151 180.598 96.9031 180.571C97.7911 180.546 98.5491 180.847 98.9901 181.167C99.4401 181.489 99.6001 181.796 99.5211 181.876Z" fill="#202020"/>
<path d="M91.398 193.813C91.3891 193.732 92.269 193.549 93.699 193.317C94.062 193.267 94.404 193.183 94.457 192.932C94.534 192.666 94.368 192.279 94.177 191.862C93.805 190.993 93.415 190.082 93.006 189.127C91.377 185.232 90.1841 182.024 90.3421 181.96C90.5001 181.896 91.9481 185.001 93.5771 188.896C93.9701 189.857 94.3461 190.773 94.7031 191.649C94.8551 192.058 95.108 192.519 94.941 193.071C94.852 193.346 94.592 193.553 94.361 193.624C94.13 193.703 93.926 193.714 93.746 193.731C92.302 193.857 91.406 193.894 91.398 193.813Z" fill="#202020"/>
<path d="M92.224 210.673C92.224 210.673 85.291 211.358 78.266 207.455C78.266 207.455 82.195 214.489 92.499 213.17L92.224 210.673Z" fill="#FF9A6C"/>
<path d="M99.5271 177.511C99.2991 177.867 98.2001 177.672 96.9281 177.821C95.6521 177.93 94.6111 178.342 94.3201 178.038C94.1901 177.889 94.3181 177.545 94.7481 177.18C95.1721 176.817 95.9131 176.468 96.7891 176.379C97.6641 176.291 98.4581 176.483 98.9431 176.755C99.4351 177.027 99.6251 177.339 99.5271 177.511Z" fill="#202020"/>
<path d="M84.9211 188.578C84.9461 189.278 85.5601 189.834 86.2911 189.82C87.0211 189.807 87.5941 189.231 87.5681 188.531C87.5421 187.831 86.9291 187.275 86.1991 187.288C85.4681 187.301 84.8961 187.878 84.9211 188.578Z" fill="#202020"/>
<path d="M80.2761 183.039C80.4521 183.199 81.401 182.387 82.824 182.288C84.244 182.17 85.3401 182.827 85.4821 182.641C85.5521 182.559 85.3631 182.259 84.8851 181.961C84.4141 181.664 83.627 181.398 82.742 181.465C81.856 181.534 81.1341 181.913 80.7301 182.278C80.3161 182.645 80.1901 182.967 80.2761 183.039Z" fill="#202020"/>
<path d="M82.153 178.012C82.451 178.32 83.532 177.924 84.852 177.836C86.169 177.707 87.304 177.92 87.543 177.568C87.647 177.398 87.453 177.084 86.947 176.804C86.449 176.525 85.63 176.32 84.723 176.394C83.817 176.47 83.046 176.805 82.605 177.162C82.156 177.519 82.021 177.861 82.153 178.012Z" fill="#202020"/>
<path d="M71.494 191.89C71.466 191.121 70.515 189.338 69.751 189.245C67.712 188.998 64.061 189.285 64.203 194.438C64.397 201.482 71.429 199.834 71.436 199.632C71.44 199.474 71.591 194.546 71.494 191.89Z" fill="#FFBF9D"/>
<path d="M69.421 197.113C69.389 197.091 69.301 197.202 69.096 197.303C68.896 197.401 68.55 197.475 68.179 197.347C67.427 197.094 66.769 195.93 66.7 194.662C66.664 194.021 66.782 193.407 66.995 192.895C67.196 192.374 67.519 192.005 67.892 191.928C68.262 191.832 68.534 192.049 68.625 192.244C68.725 192.439 68.684 192.581 68.721 192.592C68.741 192.609 68.869 192.47 68.805 192.181C68.772 192.042 68.685 191.878 68.515 191.747C68.342 191.614 68.092 191.551 67.832 191.586C67.29 191.639 66.815 192.152 66.58 192.713C66.316 193.278 66.169 193.968 66.209 194.688C66.293 196.106 67.056 197.414 68.082 197.681C68.581 197.796 68.99 197.636 69.199 197.463C69.413 197.283 69.446 197.124 69.421 197.113Z" fill="#FF9A6C"/>
<path d="M69.467 189.291L71.412 190.979C82.624 183.604 94.025 163.529 91.08 164.35C91.08 164.35 85.622 162.654 79.993 164.137C74.365 165.62 63.78 169.447 64.547 176.173C65.314 182.897 69.467 189.291 69.467 189.291Z" fill="#202020"/>
<path d="M66.173 161.133C68.902 162.728 71.334 167.379 70.218 170.337C70.722 173.43 69.529 176.747 67.17 178.81C64.811 180.873 61.365 181.614 58.367 180.702C56.296 180.072 54.453 178.681 53.34 176.825C52.019 174.624 51.771 171.896 52.243 169.373C52.823 166.265 54.528 163.3 57.177 161.576C59.826 159.852 63.444 159.537 66.173 161.133Z" fill="#202020"/>
<path d="M65.555 189.308C65.571 189.339 66.03 189.146 66.838 188.753C67.647 188.361 68.802 187.762 70.199 186.963C72.983 185.367 76.756 182.93 80.301 179.494C83.85 176.059 86.315 172.242 87.61 169.288C88.268 167.813 88.684 166.572 88.915 165.701C89.148 164.83 89.23 164.338 89.199 164.331C89.098 164.301 88.659 166.254 87.268 169.129C85.902 172.005 83.43 175.723 79.929 179.113C76.431 182.505 72.729 184.969 70.007 186.64C68.642 187.476 67.518 188.123 66.741 188.571C65.963 189.017 65.537 189.273 65.555 189.308Z" fill="#455A64"/>
<path d="M59.4091 184.02C59.5061 184.024 59.5471 182.708 59.9401 180.64C60.3271 178.574 61.1641 175.765 62.6871 172.94C64.2221 170.12 66.1181 167.884 67.6371 166.431C69.1551 164.971 70.2341 164.218 70.1781 164.14C70.1571 164.11 69.8731 164.275 69.3741 164.603C68.8701 164.922 68.1831 165.45 67.3801 166.155C65.7721 167.558 63.7841 169.806 62.2181 172.686C60.6621 175.571 59.8651 178.463 59.5681 180.577C59.4161 181.634 59.3491 182.498 59.3571 183.095C59.3561 183.691 59.3721 184.019 59.4091 184.02Z" fill="#455A64"/>
<path d="M66.89 200.358C66.89 201.815 68.071 202.996 69.528 202.996C70.985 202.996 72.166 201.815 72.166 200.358C72.166 198.901 70.985 197.72 69.528 197.72C68.071 197.72 66.89 198.901 66.89 200.358Z" fill="#202020"/>
<path d="M91.729 198.774C91.7 198.525 90.053 198.812 88.636 197.609C87.215 196.409 87.091 194.621 86.859 194.649C86.752 194.644 86.608 195.097 86.719 195.841C86.822 196.572 87.242 197.592 88.109 198.329C88.978 199.062 89.999 199.263 90.684 199.2C91.383 199.14 91.759 198.885 91.729 198.774Z" fill="#202020"/>
<path d="M54.1461 288.456C54.1461 288.456 46.2801 316.209 50.9531 331.276C53.7561 340.315 93.0991 390.108 94.9941 392.25C96.3131 393.741 78.1721 440.779 74.8531 450.577L95.7111 460.687C95.7111 460.687 121.812 405.188 123.407 395.462C125.456 382.971 96.0941 329.538 97.1731 328.821L107.727 306.808L98.9681 284.137C98.9681 284.137 62.0531 284.537 54.5151 285.14L54.1461 288.456Z" fill="#202020"/>
<path d="M99.7761 304.822C99.7761 304.822 150.662 322.876 156.399 325.932C162.654 329.263 167.378 340.95 162.163 350.884C156.948 360.818 111.2 389.26 111.2 389.26L99.7761 371.876L132.883 345.799L97.0441 337.355L85.3721 323.523L99.7761 304.822Z" fill="#202020"/>
<path d="M123.409 395.144C123.338 395.137 123.644 393.879 123.384 391.607C123.149 389.336 122.266 386.129 120.808 382.31C120.083 380.397 119.214 378.331 118.298 376.1C117.833 374.991 117.393 373.811 116.934 372.617C116.481 371.428 115.944 370.217 115.411 368.975C113.241 364.014 110.77 358.593 108.172 352.907C103.974 343.783 100.095 335.355 96.983 328.593L96.952 328.526L96.969 328.456C98.293 322.973 99.459 318.488 100.343 315.385C100.789 313.835 101.166 312.631 101.459 311.824C101.617 311.423 101.729 311.115 101.841 310.92C101.955 310.726 102.016 310.632 102.025 310.639C102.033 310.646 101.989 310.753 101.898 310.949C101.808 311.145 101.714 311.462 101.577 311.864C101.323 312.68 100.984 313.891 100.573 315.448C99.759 318.564 98.654 323.063 97.377 328.552L97.363 328.415C100.531 335.131 104.459 343.548 108.645 352.69C111.243 358.379 113.702 363.806 115.851 368.785C116.38 370.035 116.908 371.243 117.362 372.457C117.817 373.662 118.24 374.821 118.698 375.938C119.594 378.172 120.446 380.253 121.152 382.181C122.572 386.032 123.409 389.284 123.585 391.587C123.786 393.893 123.409 395.144 123.409 395.144Z" fill="#455A64"/>
<path opacity="0.3" d="M100.498 315.272C100.398 315.638 100.498 328.641 100.498 328.641L107.027 339.707L101.813 338.479L97.1741 328.821L100.498 315.272Z" fill="black"/>
<path d="M129.372 313.285C127.903 311.844 123.596 307.799 120.569 304.965C119.411 303.881 120.158 301.941 121.744 301.908L156.592 301.196C157.109 301.185 157.605 301.402 157.949 301.788L165.233 309.97C166.234 311.094 165.463 312.875 163.958 312.914L130.653 313.787C130.175 313.799 129.714 313.62 129.372 313.285Z" fill="#455A64"/>
<path d="M119.508 307.022C119.508 307.022 123.558 305.225 127.607 304.822C131.657 304.419 133.682 306.124 135.851 305.922C138.02 305.72 143.95 306.299 143.95 307.89C143.95 309.481 135.706 310.059 135.706 310.059L142.937 312.373C142.937 312.373 151.181 311.361 151.326 312.373C151.471 313.385 143.95 314.398 140.479 314.832C137.008 315.266 116.904 315.555 114.012 314.832C111.119 314.109 90.582 301.671 90.582 301.671L100.417 291.547L119.508 307.022Z" fill="#FFBF9D"/>
<path d="M68.8611 216.494C68.8611 216.494 59.4021 217.939 56.1671 228.239C53.4771 236.802 58.6081 271.993 60.7891 278.346C62.9701 284.699 86.454 305.148 88.518 303.409C90.582 301.67 102.026 291.546 102.026 291.546L83.6531 269.832C83.6531 269.832 84.6261 244.049 83.4101 239.184C82.1941 234.32 73.9691 216.007 68.8611 216.494Z" fill="#FFC727"/>
<path d="M57.376 259.414C58.72 271.635 56.096 276.889 56.096 276.889C53.971 278.497 52.905 281.157 52.676 283.151C52.551 284.238 53.423 285.177 54.516 285.139L98.969 284.136C98.969 284.136 105.19 284.729 105.058 278.831C104.91 272.247 106.724 249.114 104.334 240.02C103.509 236.882 93.358 221.58 93.358 221.58L72.167 209.564L69.925 215.339C69.925 215.339 63.202 217.793 60.131 221.751C57.703 224.88 56.85 227.039 55.877 230.391C54.038 236.724 56.655 252.859 57.376 259.414Z" fill="#FFC727"/>
<path d="M169.143 239.016C169.143 239.016 168.755 238.668 167.407 239.103C166.059 239.538 162.227 241.419 160.489 241.867C158.751 242.315 154.983 243.766 154.983 243.766C154.983 243.766 152.885 243.524 150.221 245.366C147.556 247.208 140.037 252.175 140.037 252.175L142.62 259.488C142.62 259.488 145.525 259.001 146.351 259.246C147.177 259.491 149.636 259.642 151.68 259.028C153.724 258.414 156.491 257.308 156.491 257.308C156.491 257.308 159.186 257.529 159.893 256.551C160.6 255.573 159.84 253.807 159.84 253.807C159.84 253.807 162.485 251.381 161.348 250.017C160.212 248.653 158.798 247.143 158.798 247.143C158.798 247.143 166.643 242.985 168.125 241.883C169.605 240.782 169.897 239.898 169.143 239.016Z" fill="#FFBF9D"/>
<path d="M140.037 252.175L115.639 260.386L105.781 265.367L119.619 272.827L142.62 259.488L140.037 252.175Z" fill="#FFBF9D"/>
<path d="M154.816 246.146C154.938 246.103 155.476 249.006 154.516 252.433C154.478 252.565 154.44 252.696 154.404 252.819L154.201 252.488C155.819 252.779 157.26 253.064 158.297 253.296C159.363 253.509 159.926 253.958 159.873 254.013C159.834 254.067 159.277 253.763 158.232 253.647C157.184 253.507 155.728 253.282 154.11 252.999L153.826 252.949L153.907 252.668C153.941 252.549 153.978 252.422 154.014 252.294C154.945 248.987 154.654 246.149 154.816 246.146Z" fill="#FF9A6C"/>
<path d="M154.699 249.616C154.717 249.573 154.917 249.594 155.202 249.78C155.48 249.962 155.842 250.335 155.997 250.917L155.735 250.735C156.144 250.661 156.616 250.61 157.116 250.6C158.906 250.561 160.276 251.11 160.227 251.238C160.187 251.384 158.821 251.081 157.126 251.121C156.649 251.131 156.197 251.161 155.801 251.2L155.579 251.222L155.539 251.018C155.352 250.071 154.629 249.705 154.699 249.616Z" fill="#FF9A6C"/>
<path d="M158.374 247.744C158.458 247.869 157.801 248.425 157.21 249.271C156.608 250.11 156.302 250.913 156.156 250.876C156.021 250.854 156.119 249.903 156.785 248.97C157.444 248.033 158.308 247.624 158.374 247.744Z" fill="#FF9A6C"/>
<path d="M92.8961 216.214L95.3461 222.796C98.0131 225.325 104.654 232.431 105.915 237.322C107.564 243.718 114.998 259.796 114.998 259.796C114.998 259.796 131.856 252.609 133.019 253.789C134.182 254.969 140.088 268.823 138.145 271.73C136.202 274.637 118.986 282.258 112.022 280.546C105.058 278.833 98.4541 268.752 98.4541 268.752L92.8961 216.214Z" fill="#FFC727"/>
<path d="M103.965 237.387C103.999 237.375 104.193 237.909 104.516 238.888C104.688 239.375 104.873 239.978 105.023 240.696C105.186 241.41 105.403 242.218 105.522 243.134C105.857 244.951 106.019 247.146 106.102 249.581C106.142 252.017 106.058 254.694 105.883 257.493C105.499 263.09 105.102 268.139 105.147 271.804C105.128 272.721 105.183 273.547 105.202 274.274C105.214 275.002 105.261 275.627 105.305 276.137C105.381 277.159 105.406 277.728 105.371 277.733C105.336 277.738 105.242 277.178 105.103 276.157C105.027 275.647 104.951 275.022 104.911 274.291C104.864 273.562 104.783 272.73 104.779 271.81C104.64 268.125 104.98 263.044 105.363 257.461C105.538 254.668 105.636 252.008 105.622 249.589C105.566 247.173 105.444 244.995 105.158 243.19C104.64 239.568 103.851 237.421 103.965 237.387Z" fill="#202020"/>
<path d="M114.743 269.326C114.599 269.324 114.514 267.135 114.553 264.437C114.592 261.738 114.74 259.553 114.884 259.555C115.028 259.557 115.113 261.746 115.074 264.445C115.035 267.142 114.887 269.328 114.743 269.326Z" fill="#202020"/>
<path d="M83.29 236.242C83.308 236.243 83.321 236.446 83.329 236.833C83.334 237.276 83.34 237.836 83.348 238.524C83.369 240.062 83.397 242.17 83.432 244.743C83.494 249.991 83.768 257.256 83.552 265.27C83.532 267.248 83.708 269.217 84.578 270.84C85.449 272.459 86.756 273.768 87.882 275.085C90.159 277.686 92.215 280.036 93.959 282.028C95.64 283.977 97.017 285.573 98.022 286.739C98.463 287.267 98.822 287.697 99.107 288.037C99.351 288.338 99.472 288.501 99.458 288.513C99.444 288.525 99.297 288.384 99.027 288.106C98.723 287.782 98.34 287.374 97.868 286.872C96.832 285.733 95.413 284.174 93.68 282.27C91.912 280.298 89.826 277.973 87.518 275.4C86.387 274.094 85.064 272.8 84.125 271.079C83.186 269.339 83.009 267.269 83.029 265.267C83.245 257.254 83.029 250.003 83.061 244.746C83.061 242.118 83.092 239.991 83.143 238.522C83.165 237.787 83.196 237.217 83.222 236.831C83.249 236.443 83.272 236.241 83.29 236.242Z" fill="#202020"/>
<path d="M68.0251 216.493C68.0471 216.552 67.0171 216.842 65.3401 217.749C63.6861 218.661 61.3591 220.269 59.3391 223.015C58.3291 224.375 57.4081 226.012 56.7691 227.898C56.4321 228.834 56.2011 229.84 56.0321 230.884C55.8861 231.928 55.8011 233.035 55.7281 234.157C55.5911 236.407 55.5861 238.778 55.7401 241.226C55.9031 243.669 56.2421 246.205 56.5011 248.804C57.0501 254.001 57.5741 258.949 58.0501 263.459C58.5151 267.964 58.8801 272.03 59.8121 275.313C60.7071 278.603 62.0901 281.043 63.2651 282.534C63.8481 283.287 64.3601 283.823 64.7171 284.177C65.0771 284.527 65.2711 284.708 65.2581 284.724C65.2521 284.731 65.1971 284.694 65.0931 284.616C64.9911 284.536 64.8351 284.422 64.6451 284.254C64.2621 283.923 63.7211 283.404 63.1061 282.661C61.8671 281.19 60.4101 278.736 59.4571 275.414C58.4681 272.099 58.0631 268.004 57.5731 263.511C57.0841 259.002 56.5471 254.055 55.9831 248.86C55.7241 246.259 55.3891 243.734 55.2301 241.258C55.0811 238.787 55.0961 236.395 55.2481 234.126C55.3291 232.989 55.4201 231.893 55.5791 230.814C55.7601 229.742 56.0071 228.712 56.3611 227.756C57.0341 225.829 57.9951 224.168 59.0441 222.795C61.1431 220.025 63.5421 218.439 65.2451 217.571C66.1041 217.137 66.8001 216.856 67.2841 216.708C67.7651 216.55 68.0201 216.476 68.0251 216.493Z" fill="#202020"/>
<path d="M93.2161 223.016C93.1951 223.045 92.8311 222.826 92.1871 222.402C91.4611 221.909 90.5551 221.293 89.4761 220.561L89.7641 220.417C89.7511 221.801 89.7361 223.422 89.7201 225.206L89.7171 225.586L89.3751 225.414C87.6531 224.548 85.7561 223.594 83.7601 222.591C79.9311 220.649 76.4781 218.865 73.9911 217.55C72.8271 216.923 71.8451 216.394 71.0571 215.969C70.3701 215.585 69.9971 215.358 70.0131 215.326C70.0291 215.294 70.4331 215.46 71.1481 215.788C71.9561 216.173 72.9621 216.652 74.1561 217.221C76.6861 218.451 80.1651 220.184 83.9951 222.126C85.9841 223.144 87.8741 224.111 89.5901 224.989L89.2441 225.196C89.3021 223.414 89.3551 221.793 89.4001 220.41L89.4121 220.056L89.6891 220.265C90.7301 221.051 91.6031 221.711 92.3041 222.24C92.9121 222.714 93.2371 222.988 93.2161 223.016Z" fill="#202020"/>
<path d="M101.093 445.318L92.8731 462.529C92.8731 462.529 108.653 476.993 107.462 480.327L71.5221 464.961L83.1641 437.598L101.093 445.318Z" fill="#202020"/>
<path d="M82.3951 456.305C81.6221 456.187 80.8221 456.721 80.6971 457.454C80.5721 458.187 81.1601 458.994 81.9321 459.124C82.7031 459.255 83.6851 458.643 83.7241 457.898C83.7631 457.153 83.0191 456.24 82.2441 456.29" fill="#E0E0E0"/>
<path d="M71.5221 464.961L72.8101 462.251L106.787 477.997C106.787 477.997 108.103 479.339 107.462 480.327L71.5221 464.961Z" fill="#455A64"/>
<path d="M93.5301 462.605C93.4531 462.768 92.5421 462.468 91.4491 462.632C90.3501 462.769 89.5941 463.297 89.4611 463.162C89.3131 463.061 90.0032 462.181 91.3322 462.005C92.6582 461.817 93.6341 462.469 93.5301 462.605Z" fill="white"/>
<path d="M96.6631 465.69C96.6331 465.868 95.7521 465.825 94.8531 466.272C93.9401 466.693 93.4611 467.387 93.2901 467.305C93.1141 467.261 93.4121 466.238 94.5411 465.703C95.6651 465.158 96.7281 465.53 96.6631 465.69Z" fill="white"/>
<path d="M96.963 470.869C96.788 470.836 96.902 469.903 97.745 469.188C98.583 468.466 99.565 468.461 99.579 468.632C99.619 468.811 98.876 469.07 98.194 469.668C97.496 470.249 97.144 470.927 96.963 470.869Z" fill="white"/>
</svg>
