<svg width="30" height="16" viewBox="0 0 30 16" fill="none" xmlns="http://www.w3.org/2000/svg">
<path d="M3.92171 14.2314L14.9697 5.34011L26.0178 14.5607C26.3825 14.8631 26.8403 15.0303 27.3139 15.0341C27.6162 15.0346 27.9148 14.9684 28.1886 14.8404C28.4624 14.7123 28.7046 14.5255 28.8981 14.2931C29.0713 14.0852 29.2018 13.845 29.2822 13.5865C29.3625 13.328 29.391 13.0562 29.3662 12.7866C29.3414 12.5171 29.2636 12.255 29.1374 12.0156C29.0111 11.7761 28.8389 11.5639 28.6306 11.3911L16.2865 1.10029C15.9183 0.79757 15.4566 0.63208 14.98 0.63208C14.5035 0.63208 14.0417 0.79757 13.6736 1.10029L1.32944 11.0412C1.11809 11.2111 0.942383 11.421 0.812412 11.659C0.682441 11.897 0.600769 12.1584 0.572091 12.4281C0.543413 12.6977 0.568294 12.9704 0.645305 13.2305C0.722316 13.4905 0.849936 13.7327 1.02083 13.9433C1.19208 14.1532 1.40308 14.3272 1.64172 14.4553C1.88036 14.5835 2.14194 14.6632 2.41146 14.69C2.68097 14.7168 2.95312 14.69 3.21229 14.6113C3.47146 14.5326 3.71254 14.4035 3.92171 14.2314Z" fill="#FF6E14"/>
</svg>


