<svg width="26" height="26" viewBox="0 0 26 26" fill="none" xmlns="http://www.w3.org/2000/svg">
<path d="M8.66656 23.8333H17.3332C21.6882 23.8333 22.4682 22.0892 22.6957 19.9658L23.5082 11.2992C23.8007 8.65583 23.0424 6.5 18.4166 6.5H7.58323C2.95739 6.5 2.19906 8.65583 2.49156 11.2992L3.30406 19.9658C3.53156 22.0892 4.31156 23.8333 8.66656 23.8333Z" stroke="black" stroke-width="1.5" stroke-miterlimit="10" stroke-linecap="round" stroke-linejoin="round"/>
<path d="M8.66699 6.50002V5.63335C8.66699 3.71585 8.66699 2.16669 12.1337 2.16669H13.867C17.3337 2.16669 17.3337 3.71585 17.3337 5.63335V6.50002" stroke="black" stroke-width="1.5" stroke-miterlimit="10" stroke-linecap="round" stroke-linejoin="round"/>
<path d="M15.1663 14.0833V15.1667C15.1663 15.1775 15.1663 15.1775 15.1663 15.1883C15.1663 16.3692 15.1555 17.3333 12.9997 17.3333C10.8547 17.3333 10.833 16.38 10.833 15.1992V14.0833C10.833 13 10.833 13 11.9163 13H14.083C15.1663 13 15.1663 13 15.1663 14.0833Z" stroke="black" stroke-width="1.5" stroke-miterlimit="10" stroke-linecap="round" stroke-linejoin="round"/>
<path d="M23.4545 11.9167C20.952 13.7367 18.092 14.82 15.167 15.1884" stroke="black" stroke-width="1.5" stroke-miterlimit="10" stroke-linecap="round" stroke-linejoin="round"/>
<path d="M2.83789 12.2092C5.27539 13.8775 8.02706 14.885 10.8329 15.1992" stroke="black" stroke-width="1.5" stroke-miterlimit="10" stroke-linecap="round" stroke-linejoin="round"/>
</svg>
