<svg width="19" height="20" viewBox="0 0 19 20" fill="none" xmlns="http://www.w3.org/2000/svg">
<mask id="path-1-inside-1_579_1627" fill="white">
<path fill-rule="evenodd" clip-rule="evenodd" d="M17.3563 1.78049C17.9714 2.44894 17.9714 3.47723 17.3563 4.14568L4.21427 18.4293C3.52238 19.1813 2.33552 19.1813 1.64363 18.4293C1.0286 17.7609 1.0286 16.7326 1.64363 16.0641L14.7857 1.78049C15.4776 1.02849 16.6645 1.02849 17.3563 1.78049Z"/>
<path fill-rule="evenodd" clip-rule="evenodd" d="M17.3563 18.4293C16.6645 19.1813 15.4776 19.1813 14.7857 18.4293L1.64362 4.14568C1.0286 3.47723 1.0286 2.44894 1.64362 1.78049C2.33552 1.02849 3.52237 1.02849 4.21427 1.78049L17.3563 16.0641C17.9714 16.7326 17.9714 17.7609 17.3563 18.4293Z"/>
</mask>
<path fill-rule="evenodd" clip-rule="evenodd" d="M17.3563 1.78049C17.9714 2.44894 17.9714 3.47723 17.3563 4.14568L4.21427 18.4293C3.52238 19.1813 2.33552 19.1813 1.64363 18.4293C1.0286 17.7609 1.0286 16.7326 1.64363 16.0641L14.7857 1.78049C15.4776 1.02849 16.6645 1.02849 17.3563 1.78049Z" fill="#DC5400"/>
<path fill-rule="evenodd" clip-rule="evenodd" d="M17.3563 18.4293C16.6645 19.1813 15.4776 19.1813 14.7857 18.4293L1.64362 4.14568C1.0286 3.47723 1.0286 2.44894 1.64362 1.78049C2.33552 1.02849 3.52237 1.02849 4.21427 1.78049L17.3563 16.0641C17.9714 16.7326 17.9714 17.7609 17.3563 18.4293Z" fill="#DC5400"/>
<path d="M17.3563 16.0641L13.911 19.2341L17.3563 16.0641ZM7.65958 21.5993L20.8017 7.31563L13.911 0.975729L0.768965 15.2594L7.65958 21.5993ZM11.3404 -1.38947L-1.80168 12.8942L5.08894 19.2341L18.231 4.95044L11.3404 -1.38947ZM-1.80169 7.31563L11.3404 21.5993L18.231 15.2594L5.08893 0.975729L-1.80169 7.31563ZM20.8017 12.8942L7.65958 -1.38947L0.768959 4.95044L13.911 19.2341L20.8017 12.8942ZM13.911 19.2341C12.8775 18.1108 12.8775 16.3827 13.911 15.2594L20.8017 21.5993C23.0653 19.1391 23.0653 15.3544 20.8017 12.8942L13.911 19.2341ZM5.08893 4.95044C3.92621 6.21417 1.93169 6.21417 0.768959 4.95044L7.65958 -1.38947C5.11306 -4.15719 0.744831 -4.15719 -1.80169 -1.38947L5.08893 4.95044ZM11.3404 21.5993C13.8869 24.367 18.2551 24.367 20.8017 21.5993L13.911 15.2594C15.0738 13.9957 17.0683 13.9957 18.231 15.2594L11.3404 21.5993ZM5.08893 0.975729C6.12249 2.09906 6.12249 3.8271 5.08893 4.95044L-1.80169 -1.38947C-4.0653 1.07078 -4.0653 4.8554 -1.80169 7.31563L5.08893 0.975729ZM18.231 4.95044C17.0683 6.21417 15.0738 6.21417 13.911 4.95044L20.8017 -1.38947C18.2551 -4.15719 13.8869 -4.15719 11.3404 -1.38947L18.231 4.95044ZM5.08894 15.2594C6.12249 16.3827 6.12249 18.1108 5.08894 19.2341L-1.80168 12.8942C-4.06529 15.3544 -4.0653 19.139 -1.80168 21.5993L5.08894 15.2594ZM20.8017 7.31563C23.0653 4.8554 23.0653 1.07078 20.8017 -1.38947L13.911 4.95044C12.8775 3.8271 12.8775 2.09906 13.911 0.975729L20.8017 7.31563ZM0.768965 15.2594C1.93169 13.9957 3.92621 13.9957 5.08894 15.2594L-1.80168 21.5993C0.744839 24.367 5.11307 24.367 7.65958 21.5993L0.768965 15.2594Z" fill="#DC5400" mask="url(#path-1-inside-1_579_1627)"/>
<rect y="0.287109" width="7.31321" height="2.81573" transform="matrix(0.677088 0.735902 -0.677088 0.735902 7.69928 5.64205)" fill="#DC5400" stroke="#DC5400" stroke-width="0.390146"/>
<rect x="-0.264163" width="7.31321" height="2.81573" transform="matrix(-0.677088 0.735902 -0.677088 -0.735902 12.7743 8.63803)" fill="#DC5400" stroke="#DC5400" stroke-width="0.390146"/>
</svg>
