<svg width="75" height="75" viewBox="0 0 75 75" fill="none" xmlns="http://www.w3.org/2000/svg">
<path d="M1.5 20C1.5 9.78273 9.78273 1.5 20 1.5H55C65.2173 1.5 73.5 9.78273 73.5 20V55C73.5 65.2173 65.2173 73.5 55 73.5H20C9.78273 73.5 1.5 65.2173 1.5 55V20Z" stroke="url(#paint0_linear_1_392)" stroke-width="3"/>
<path d="M25.9217 37.2314L36.9697 28.3401L48.0178 37.5607C48.3825 37.8631 48.8403 38.0303 49.3139 38.0341C49.6162 38.0346 49.9148 37.9684 50.1886 37.8404C50.4624 37.7123 50.7046 37.5255 50.8981 37.2931C51.0713 37.0852 51.2018 36.845 51.2822 36.5865C51.3625 36.328 51.391 36.0562 51.3662 35.7866C51.3414 35.5171 51.2636 35.255 51.1374 35.0156C51.0111 34.7761 50.8389 34.5639 50.6306 34.3911L38.2865 24.1003C37.9183 23.7976 37.4566 23.6321 36.98 23.6321C36.5035 23.6321 36.0417 23.7976 35.6736 24.1003L23.3294 34.0412C23.1181 34.2111 22.9424 34.421 22.8124 34.659C22.6824 34.897 22.6008 35.1584 22.5721 35.4281C22.5434 35.6977 22.5683 35.9704 22.6453 36.2305C22.7223 36.4905 22.8499 36.7327 23.0208 36.9433C23.1921 37.1532 23.4031 37.3272 23.6417 37.4553C23.8804 37.5835 24.1419 37.6632 24.4115 37.69C24.681 37.7168 24.9531 37.69 25.2123 37.6113C25.4715 37.5326 25.7125 37.4035 25.9217 37.2314Z" fill="#FF6E14"/>
<path d="M38.2865 38.5074C37.9183 38.2047 37.4566 38.0392 36.98 38.0392C36.5035 38.0392 36.0417 38.2047 35.6736 38.5074L23.3294 48.4483C23.1181 48.6182 22.9424 48.8281 22.8124 49.0661C22.6824 49.3041 22.6008 49.5655 22.5721 49.8352C22.5434 50.1049 22.5683 50.3775 22.6453 50.6376C22.7223 50.8976 22.8499 51.1398 23.0208 51.3504C23.1906 51.5618 23.4005 51.7376 23.6384 51.8676C23.8763 51.9976 24.1375 52.0793 24.4071 52.108C24.6767 52.1367 24.9493 52.1118 25.2092 52.0348C25.4691 51.9577 25.7113 51.8301 25.9217 51.6591L36.9697 42.7472L48.0178 51.9678C48.3825 52.2702 48.8403 52.4374 49.3139 52.4412C49.6162 52.4417 49.9148 52.3755 50.1886 52.2475C50.4624 52.1194 50.7046 51.9326 50.8981 51.7002C51.0713 51.4923 51.2018 51.2522 51.2822 50.9936C51.3625 50.7351 51.391 50.4633 51.3662 50.1937C51.3414 49.9242 51.2636 49.6621 51.1374 49.4227C51.0112 49.1832 50.8389 48.971 50.6306 48.7982L38.2865 38.5074Z" fill="#FF6E14"/>
<defs>
<linearGradient id="paint0_linear_1_392" x1="129.5" y1="0" x2="129.5" y2="75" gradientUnits="userSpaceOnUse">
<stop stop-color="#FF6E14"/>
<stop offset="1" stop-color="#FF6E14" stop-opacity="0.5"/>
</linearGradient>
</defs>
</svg>
