<svg width="40" height="40" viewBox="0 0 40 40" fill="none" xmlns="http://www.w3.org/2000/svg">
<path d="M27 12C25.2968 11.9942 23.6091 12.3242 22.0336 12.9713C20.4581 13.6184 19.0256 14.5697 17.8181 15.771C16.6107 16.9723 15.652 18.3998 14.9968 19.972C14.3416 21.5442 14.0029 23.2301 14 24.9333V37.9999C14 38.5304 14.2107 39.0391 14.5858 39.4142C14.9609 39.7892 15.4696 39.9999 16 39.9999H20.6666C21.1971 39.9999 21.7058 39.7892 22.0809 39.4142C22.4559 39.0391 22.6666 38.5304 22.6666 37.9999V24.9333C22.6662 24.3275 22.7934 23.7285 23.04 23.1752C23.2867 22.6219 23.6471 22.1267 24.0979 21.7221C24.5487 21.3174 25.0797 21.0123 25.6563 20.8266C26.2329 20.6409 26.8422 20.5789 27.4444 20.6444C28.5244 20.7805 29.517 21.3081 30.2338 22.1273C30.9506 22.9466 31.3418 24.0004 31.3333 25.0889V37.9999C31.3333 38.5304 31.544 39.0391 31.9191 39.4142C32.2941 39.7892 32.8028 39.9999 33.3333 39.9999H37.9999C38.5304 39.9999 39.0391 39.7892 39.4141 39.4142C39.7892 39.0391 39.9999 38.5304 39.9999 37.9999V24.9333C39.997 23.2301 39.6583 21.5442 39.0031 19.972C38.348 18.3998 37.3892 16.9723 36.1818 15.771C34.9743 14.5697 33.5419 13.6184 31.9663 12.9713C30.3908 12.3242 28.7032 11.9942 27 12Z" fill="url(#paint0_linear_1_401)"/>
<path d="M7.99998 14.0001H2C0.895428 14.0001 0 14.8955 0 16.0001V38C0 39.1046 0.895428 40 2 40H7.99998C9.10455 40 9.99998 39.1046 9.99998 38V16.0001C9.99998 14.8955 9.10455 14.0001 7.99998 14.0001Z" fill="url(#paint1_linear_1_401)"/>
<path d="M4.99999 9.99998C7.7614 9.99998 9.99998 7.7614 9.99998 4.99999C9.99998 2.23857 7.7614 0 4.99999 0C2.23857 0 0 2.23857 0 4.99999C0 7.7614 2.23857 9.99998 4.99999 9.99998Z" fill="url(#paint2_linear_1_401)"/>
<defs>
<linearGradient id="paint0_linear_1_401" x1="27" y1="11.9999" x2="27" y2="39.9999" gradientUnits="userSpaceOnUse">
<stop stop-color="#0072B1"/>
<stop offset="1" stop-color="#0072B1" stop-opacity="0.5"/>
</linearGradient>
<linearGradient id="paint1_linear_1_401" x1="4.99999" y1="14.0001" x2="4.99999" y2="40" gradientUnits="userSpaceOnUse">
<stop stop-color="#0072B1"/>
<stop offset="1" stop-color="#0072B1" stop-opacity="0.5"/>
</linearGradient>
<linearGradient id="paint2_linear_1_401" x1="4.99999" y1="0" x2="4.99999" y2="9.99997" gradientUnits="userSpaceOnUse">
<stop stop-color="#0072B1"/>
<stop offset="1" stop-color="#0072B1" stop-opacity="0.5"/>
</linearGradient>
</defs>
</svg>
