<svg width="24" height="24" viewBox="0 0 20 18" fill="none" xmlns="http://www.w3.org/2000/svg">
<path d="M7.5 3.21324e-07C6.23824 -0.00036898 4.99677 0.317599 3.89053 0.924469C2.7843 1.53134 1.84905 2.40749 1.17137 3.47182C0.493687 4.53615 0.0954792 5.75425 0.013609 7.01336C-0.0682612 8.27246 0.168853 9.53187 0.703 10.675C0.45127 11.7168 0.224206 12.7644 0.0219997 13.817C-0.0087773 13.9758 -0.000423968 14.1397 0.0463377 14.2945C0.0930993 14.4493 0.176862 14.5904 0.290387 14.7056C0.403912 14.8208 0.543782 14.9067 0.69791 14.9557C0.852038 15.0047 1.01579 15.0154 1.175 14.987C1.798 14.877 3.153 14.627 4.411 14.337C5.43064 14.7968 6.54021 15.0227 7.65846 14.9982C8.77671 14.9737 9.87532 14.6994 10.8738 14.1953C11.8723 13.6913 12.7455 12.9703 13.4293 12.0851C14.1131 11.2 14.5903 10.1731 14.8258 9.07967C15.0614 7.98625 15.0495 6.85397 14.7908 5.76577C14.5322 4.67756 14.0334 3.66099 13.3311 2.79048C12.6287 1.91998 11.7405 1.21759 10.7316 0.734763C9.72267 0.251932 8.61852 0.000882798 7.5 3.21324e-07ZM5.09 4.396C5.354 3.91 5.702 3.543 6.144 3.307C6.578 3.075 7.045 3.001 7.5 3.001C8.09366 3.00288 8.66908 3.20633 9.132 3.578C9.649 4.002 10 4.652 10 5.5C10 6.475 9.311 7.004 8.923 7.302L8.838 7.368C8.414 7.701 8.25 7.879 8.25 8.25C8.25 8.44891 8.17098 8.63968 8.03033 8.78033C7.88968 8.92098 7.69891 9 7.5 9C7.30109 9 7.11032 8.92098 6.96967 8.78033C6.82902 8.63968 6.75 8.44891 6.75 8.25C6.75 7.116 7.461 6.542 7.912 6.188C8.425 5.785 8.5 5.695 8.5 5.5C8.5 5.103 8.351 4.878 8.18 4.739C7.98661 4.58523 7.74708 4.50104 7.5 4.5C7.205 4.5 7.002 4.549 6.85 4.63C6.707 4.706 6.556 4.84 6.41 5.11C6.36305 5.19667 6.29949 5.27325 6.22295 5.33536C6.14641 5.39747 6.05838 5.44389 5.9639 5.47198C5.86942 5.50007 5.77032 5.50928 5.67228 5.49907C5.57424 5.48886 5.47917 5.45945 5.3925 5.4125C5.30583 5.36555 5.22925 5.30199 5.16714 5.22545C5.10503 5.14891 5.05861 5.06088 5.03052 4.9664C5.00243 4.87192 4.99322 4.77283 5.00343 4.67478C5.01364 4.57674 5.04305 4.48267 5.09 4.396ZM7.5 10C7.76522 10 8.01957 10.1054 8.20711 10.2929C8.39464 10.4804 8.5 10.7348 8.5 11C8.5 11.2652 8.39464 11.5196 8.20711 11.7071C8.01957 11.8946 7.76522 12 7.5 12C7.23478 12 6.98043 11.8946 6.79289 11.7071C6.60536 11.5196 6.5 11.2652 6.5 11C6.5 10.7348 6.60536 10.4804 6.79289 10.2929C6.98043 10.1054 7.23478 10 7.5 10ZM7.4 16C8.78539 17.2885 10.6081 18.0032 12.5 18C13.6 18 14.645 17.763 15.588 17.336C16.632 17.581 17.774 17.824 18.501 17.976C18.7056 18.0191 18.9178 18.0099 19.118 17.9493C19.3181 17.8886 19.4998 17.7785 19.6461 17.6291C19.7924 17.4797 19.8987 17.2958 19.9552 17.0944C20.0116 16.893 20.0164 16.6807 19.969 16.477C19.806 15.774 19.55 14.682 19.297 13.674C19.7415 12.722 19.981 11.6872 20.0001 10.6367C20.0192 9.58617 19.8175 8.54336 19.408 7.57577C18.9985 6.60818 18.3903 5.73739 17.6229 5.01978C16.8555 4.30216 15.9459 3.75373 14.953 3.41C15.303 4.047 15.575 4.734 15.753 5.457C16.596 6.00091 17.2891 6.74752 17.769 7.62852C18.2489 8.50951 18.5002 9.49678 18.5 10.5C18.5 11.491 18.26 12.424 17.836 13.247L17.706 13.5L17.776 13.775C18.003 14.671 18.242 15.675 18.417 16.425C17.5016 16.233 16.5885 16.0299 15.678 15.816L15.413 15.753L15.17 15.875C14.367 16.275 13.46 16.5 12.5 16.5C11.4784 16.5003 10.4737 16.2397 9.581 15.743C8.86845 15.9222 8.13568 16.0082 7.401 15.999" fill="#DC5400"/>
</svg>
