<svg width="16" height="16" viewBox="0 0 16 16" fill="none" xmlns="http://www.w3.org/2000/svg">
<path fill-rule="evenodd" clip-rule="evenodd" d="M4.84 6.72003C4.91369 6.78869 4.97279 6.87149 5.01378 6.96349C5.05477 7.05549 5.07681 7.1548 5.07859 7.25551C5.08037 7.35621 5.06184 7.45624 5.02412 7.54963C4.9864 7.64302 4.93026 7.72785 4.85904 7.79907C4.78782 7.87029 4.70299 7.92643 4.6096 7.96415C4.51621 8.00187 4.41618 8.0204 4.31548 8.01862C4.21477 8.01684 4.11546 7.9948 4.02346 7.95381C3.93146 7.91282 3.84866 7.85372 3.78 7.78003L0.53 4.53003L0 4.00003L0.53 3.47003L3.78 0.22003C3.92218 0.0875496 4.11022 0.0154264 4.30452 0.0188546C4.49882 0.0222829 4.68421 0.100995 4.82162 0.238408C4.95903 0.375821 5.03775 0.561206 5.04117 0.755507C5.0446 0.949808 4.97248 1.13785 4.84 1.28003L2.87 3.25003H7.248C8.50778 3.25003 9.71596 3.75047 10.6068 4.64127C11.4976 5.53207 11.998 6.74025 11.998 8.00003V11.25C11.998 11.4489 11.919 11.6397 11.7783 11.7804C11.6377 11.921 11.4469 12 11.248 12C11.0491 12 10.8583 11.921 10.7177 11.7804C10.577 11.6397 10.498 11.4489 10.498 11.25V8.00003C10.498 7.13808 10.1556 6.31143 9.5461 5.70193C8.9366 5.09244 8.10995 4.75003 7.248 4.75003H2.871L4.84 6.72003Z" fill="#DC5400"/>
</svg>
